<svg width="106" height="106" viewBox="0 0 106 106" fill="none" xmlns="http://www.w3.org/2000/svg">
<path d="M62.906 88.3127C60.1048 88.3127 57.8253 90.5922 57.8253 93.3934C57.8253 96.1945 60.1048 98.474 62.906 98.474C65.7071 98.474 67.9866 96.1945 67.9866 93.3934C67.9866 90.5922 65.7071 88.3127 62.906 88.3127ZM62.906 95.0869C61.9728 95.0869 61.2124 94.3282 61.2124 93.3934C61.2124 92.4585 61.9728 91.6998 62.906 91.6998C63.8391 91.6998 64.5995 92.4585 64.5995 93.3934C64.5995 94.3282 63.8391 95.0869 62.906 95.0869Z" fill="#0052CC"/>
<path d="M22.2608 88.3127C19.4597 88.3127 17.1802 90.5922 17.1802 93.3934C17.1802 96.1945 19.4597 98.474 22.2608 98.474C25.0619 98.474 27.3415 96.1945 27.3415 93.3934C27.3415 90.5922 25.0619 88.3127 22.2608 88.3127ZM22.2608 95.0869C21.3277 95.0869 20.5673 94.3282 20.5673 93.3934C20.5673 92.4585 21.3277 91.6998 22.2608 91.6998C23.194 91.6998 23.9544 92.4585 23.9544 93.3934C23.9544 94.3282 23.194 95.0869 22.2608 95.0869Z" fill="#0052CC"/>
<path d="M25.6478 27.345C28.4489 27.345 30.7284 25.0655 30.7284 22.2643C30.7284 19.4632 28.4489 17.1837 25.6478 17.1837C22.8467 17.1837 20.5671 19.4632 20.5671 22.2643C20.5671 25.0655 22.8467 27.345 25.6478 27.345ZM25.6478 20.5708C26.5809 20.5708 27.3413 21.3295 27.3413 22.2643C27.3413 23.1992 26.5809 23.9579 25.6478 23.9579C24.7146 23.9579 23.9542 23.1992 23.9542 22.2643C23.9542 21.3295 24.7146 20.5708 25.6478 20.5708Z" fill="#F27B42"/>
<path d="M93.3897 61.216C90.5886 61.216 88.3091 63.4955 88.3091 66.2966C88.3091 69.0977 90.5886 71.3772 93.3897 71.3772C96.1909 71.3772 98.4704 69.0977 98.4704 66.2966C98.4704 63.4955 96.1909 61.216 93.3897 61.216ZM93.3897 67.9902C92.4566 67.9902 91.6962 67.2314 91.6962 66.2966C91.6962 65.3618 92.4566 64.6031 93.3897 64.6031C94.3229 64.6031 95.0833 65.3618 95.0833 66.2966C95.0833 67.2314 94.3229 67.9902 93.3897 67.9902Z" fill="#F27B42"/>
<path d="M95.0088 54.5654C95.0342 53.9591 95.0833 53.3528 95.0833 52.7482C95.0833 45.029 92.9766 37.5249 89.0204 30.9522C90.7529 27.9038 91.6962 24.427 91.6962 20.9027V20.5708C91.6962 9.36457 82.5799 0.248199 71.3737 0.248199C63.8577 0.248199 57.2952 4.36014 53.7794 10.4434C47.2135 10.2926 40.5477 11.6932 34.5966 14.513C32.4204 12.0048 29.2195 10.4095 25.6479 10.4095C19.1108 10.4095 13.793 15.7289 13.793 22.2643C13.793 24.8148 14.6364 27.3399 16.164 29.3755L16.8651 30.3104C12.9513 36.5579 10.7599 43.6691 10.4686 51.0547H7.01882C5.15084 51.0547 3.63173 52.5738 3.63173 54.4417V88.3127C1.76374 88.3127 0.244629 89.8318 0.244629 91.6998V95.0869C0.244629 96.9549 1.76374 98.474 3.63173 98.474H11.566C13.4729 102.472 17.5442 105.248 22.2608 105.248C26.9773 105.248 31.0486 102.472 32.9555 98.474H52.2112C54.1181 102.472 58.1894 105.248 62.9059 105.248C67.6225 105.248 71.6937 102.472 73.6007 98.474H78.1479C80.0158 98.474 81.535 96.9549 81.535 95.0869V90.4229C81.535 90.0097 81.4841 89.5964 81.3842 89.19L80.3004 84.8545C82.8237 82.6884 85.0745 80.2463 87.0204 77.5604L93.3898 86.0552L102.874 73.4095C104.403 71.3722 105.245 68.8454 105.245 66.2966C105.245 60.3116 100.78 55.3597 95.0088 54.5654V54.5654ZM71.3737 3.6353C80.7119 3.6353 88.3091 11.2326 88.3091 20.5708V20.901C88.3091 24.6776 87.0237 28.395 84.69 31.3638L71.3737 48.3145L58.0573 31.3638C55.7236 28.395 54.4382 24.6793 54.4382 20.901V20.5708C54.4382 11.2326 62.0354 3.6353 71.3737 3.6353ZM25.6479 13.7966C30.317 13.7966 34.1156 17.5952 34.1156 22.2643C34.1156 24.0849 33.5144 25.8902 32.422 27.3433L25.6479 36.3767L18.8737 27.3433C17.7813 25.8902 17.1801 24.0849 17.1801 22.2643C17.1801 17.5952 20.9787 13.7966 25.6479 13.7966V13.7966ZM7.01882 54.4417H20.5672V67.3432L29.035 63.1093L37.5027 67.3432V54.4417H51.0511V88.3127H32.9555C31.0486 84.3143 26.9773 81.5385 22.2608 81.5385C17.5442 81.5385 13.4729 84.3143 11.566 88.3127H7.01882V54.4417ZM23.9543 54.4417H34.1156V61.8629L29.035 59.3226L23.9543 61.8629V54.4417ZM54.4382 64.603H70.4219C71.1992 64.603 71.8766 65.1314 72.0646 65.8851L72.5913 67.9901H64.5995C62.7315 67.9901 61.2124 69.5092 61.2124 71.3772V74.7643C61.2124 76.6323 62.7315 78.1514 64.5995 78.1514H75.1317L77.672 88.3127H73.6007C71.6937 84.3143 67.6225 81.5385 62.9059 81.5385C59.59 81.5385 56.5924 82.9103 54.4382 85.1136V64.603ZM74.2849 74.7643H64.5995V71.3772H73.4381L74.2849 74.7643ZM3.63173 95.0869V91.6998H10.5414C10.4618 92.2553 10.4059 92.8176 10.4059 93.3934C10.4059 93.9692 10.4618 94.5314 10.5414 95.0869H3.63173ZM22.2608 101.861C17.5916 101.861 13.793 98.0625 13.793 93.3934C13.793 88.7243 17.5916 84.9256 22.2608 84.9256C26.9299 84.9256 30.7285 88.7243 30.7285 93.3934C30.7285 98.0625 26.9299 101.861 22.2608 101.861ZM33.9801 95.0869C34.0597 94.5314 34.1156 93.9692 34.1156 93.3934C34.1156 92.8176 34.0597 92.2553 33.9801 91.6998H51.1866C51.107 92.2553 51.0511 92.8176 51.0511 93.3934C51.0511 93.9692 51.107 94.5314 51.1866 95.0869H33.9801ZM62.9059 101.861C58.2368 101.861 54.4382 98.0625 54.4382 93.3934C54.4382 88.7243 58.2368 84.9256 62.9059 84.9256C67.575 84.9256 71.3737 88.7243 71.3737 93.3934C71.3737 98.0625 67.575 101.861 62.9059 101.861ZM74.6253 95.0869C74.7049 94.5314 74.7608 93.9692 74.7608 93.3934C74.7608 92.8176 74.7049 92.2553 74.6253 91.6998H78.1479V95.0869H74.6253ZM79.3757 81.1575L75.3518 65.0637C74.7845 62.7994 72.7573 61.2159 70.4219 61.2159H54.4382V54.4417C54.4382 52.5738 52.9191 51.0547 51.0511 51.0547H13.854C14.125 44.7445 15.893 38.6545 19.0481 33.2233L25.6479 42.023L35.1317 29.3772C36.661 27.3399 37.5027 24.8131 37.5027 22.2643C37.5027 20.5217 37.1149 18.8705 36.4358 17.3784C41.3979 15.0803 46.6987 13.8813 52.2298 13.8118C51.4812 15.9305 51.0511 18.1981 51.0511 20.5708V20.901C51.0511 25.4347 52.5939 29.8955 55.3933 33.457L71.3737 53.7948L86.9035 34.0294C90.0416 39.7468 91.6962 46.1654 91.6962 52.7482C91.6962 53.3596 91.6488 53.9743 91.6217 54.5891C85.9229 55.4477 81.535 60.3624 81.535 66.2966C81.535 68.8471 82.3783 71.3722 83.9059 73.4078L84.8831 74.7118C83.2793 77.054 81.4452 79.2184 79.3757 81.1575V81.1575ZM100.164 71.3755L93.3898 80.4089L86.6156 71.3755C85.5233 69.9225 84.9221 68.1172 84.9221 66.2966C84.9221 61.6275 88.7207 57.8288 93.3898 57.8288C98.0589 57.8288 101.858 61.6275 101.858 66.2966C101.858 68.1172 101.256 69.9225 100.164 71.3755Z" fill="#0052CC"/>
<path d="M71.3737 34.1192C78.8439 34.1192 84.9221 28.0411 84.9221 20.5708C84.9221 13.1006 78.8439 7.02246 71.3737 7.02246C63.9035 7.02246 57.8253 13.1006 57.8253 20.5708C57.8253 28.0411 63.9035 34.1192 71.3737 34.1192ZM71.3737 10.4096C76.9777 10.4096 81.535 14.9669 81.535 20.5708C81.535 26.1748 76.9777 30.7321 71.3737 30.7321C65.7698 30.7321 61.2124 26.1748 61.2124 20.5708C61.2124 14.9669 65.7698 10.4096 71.3737 10.4096Z" fill="#F27B42"/>
<path d="M40.8899 44.2805H44.277V47.6676H40.8899V44.2805Z" fill="#0052CC"/>
<path d="M47.6641 44.2805H51.0512V47.6676H47.6641V44.2805Z" fill="#0052CC"/>
<path d="M54.4381 44.2805H57.8252V47.6676H54.4381V44.2805Z" fill="#0052CC"/>
</svg>
