<svg width="44" height="43" viewBox="0 0 44 43" fill="none" xmlns="http://www.w3.org/2000/svg">
<g filter="url(#filter0_d_12_135)">
<rect x="4.5" width="35" height="35" rx="17.5" fill="white"/>
<path fill-rule="evenodd" clip-rule="evenodd" d="M15.7111 5.58622C15.7982 5.49891 15.9016 5.42964 16.0155 5.38238C16.1294 5.33512 16.2515 5.31079 16.3748 5.31079C16.4982 5.31079 16.6203 5.33512 16.7342 5.38238C16.8481 5.42964 16.9515 5.49891 17.0386 5.58622L28.2886 16.8362C28.3759 16.9233 28.4452 17.0268 28.4924 17.1407C28.5397 17.2546 28.564 17.3767 28.564 17.5C28.564 17.6233 28.5397 17.7454 28.4924 17.8593C28.4452 17.9732 28.3759 18.0766 28.2886 18.1637L17.0386 29.4137C16.8626 29.5898 16.6238 29.6887 16.3748 29.6887C16.1259 29.6887 15.8871 29.5898 15.7111 29.4137C15.5351 29.2377 15.4362 28.9989 15.4362 28.75C15.4362 28.501 15.5351 28.2623 15.7111 28.0862L26.2992 17.5L15.7111 6.91372C15.6238 6.82663 15.5545 6.72318 15.5073 6.60928C15.46 6.49538 15.4357 6.37328 15.4357 6.24997C15.4357 6.12665 15.46 6.00455 15.5073 5.89065C15.5545 5.77676 15.6238 5.6733 15.7111 5.58622Z" fill="#0052CC"/>
</g>
<defs>
<filter id="filter0_d_12_135" x="0.5" y="0" width="43" height="43" filterUnits="userSpaceOnUse" color-interpolation-filters="sRGB">
<feFlood flood-opacity="0" result="BackgroundImageFix"/>
<feColorMatrix in="SourceAlpha" type="matrix" values="0 0 0 0 0 0 0 0 0 0 0 0 0 0 0 0 0 0 127 0" result="hardAlpha"/>
<feOffset dy="4"/>
<feGaussianBlur stdDeviation="2"/>
<feComposite in2="hardAlpha" operator="out"/>
<feColorMatrix type="matrix" values="0 0 0 0 0 0 0 0 0 0 0 0 0 0 0 0 0 0 0.25 0"/>
<feBlend mode="normal" in2="BackgroundImageFix" result="effect1_dropShadow_12_135"/>
<feBlend mode="normal" in="SourceGraphic" in2="effect1_dropShadow_12_135" result="shape"/>
</filter>
</defs>
</svg>
