<svg width="25" height="24" viewBox="0 0 25 24" fill="none" xmlns="http://www.w3.org/2000/svg">
<g clip-path="url(#clip0_12_197)">
<path fill-rule="evenodd" clip-rule="evenodd" d="M24.25 12C24.25 15.1826 22.9857 18.2348 20.7353 20.4853C18.4848 22.7357 15.4326 24 12.25 24C9.0674 24 6.01516 22.7357 3.76472 20.4853C1.51428 18.2348 0.25 15.1826 0.25 12C0.25 8.8174 1.51428 5.76516 3.76472 3.51472C6.01516 1.26428 9.0674 0 12.25 0C15.4326 0 18.4848 1.26428 20.7353 3.51472C22.9857 5.76516 24.25 8.8174 24.25 12ZM18.295 7.455C18.1879 7.34823 18.0603 7.26416 17.9199 7.20782C17.7795 7.15149 17.6292 7.12404 17.478 7.12712C17.3268 7.1302 17.1777 7.16375 17.0397 7.22575C16.9018 7.28776 16.7777 7.37695 16.675 7.488L11.4655 14.1255L8.326 10.9845C8.11274 10.7858 7.83067 10.6776 7.53922 10.6827C7.24776 10.6879 6.96969 10.8059 6.76357 11.0121C6.55745 11.2182 6.43938 11.4963 6.43424 11.7877C6.4291 12.0792 6.53728 12.3612 6.736 12.5745L10.705 16.545C10.8119 16.6517 10.9392 16.7358 11.0794 16.7923C11.2195 16.8487 11.3696 16.8764 11.5206 16.8736C11.6717 16.8708 11.8206 16.8376 11.9585 16.776C12.0965 16.7144 12.2206 16.6256 12.3235 16.515L18.3115 9.03C18.5156 8.81775 18.6284 8.53391 18.6256 8.23944C18.6228 7.94496 18.5046 7.66332 18.2965 7.455H18.295Z" fill="#0052CC"/>
</g>
<defs>
<clipPath id="clip0_12_197">
<rect width="24" height="24" fill="white" transform="translate(0.25)"/>
</clipPath>
</defs>
</svg>
