<svg width="95" height="96" viewBox="0 0 95 96" fill="none" xmlns="http://www.w3.org/2000/svg">
<path d="M77.9439 13.1647C75.8734 12.6073 73.7087 12.8931 71.849 13.9694C68.016 16.188 66.6878 21.1179 68.8881 24.9593C69.9551 26.8221 71.6823 28.1547 73.7518 28.7119C74.4437 28.8983 75.1458 28.9904 75.8438 28.9904C77.2348 28.9904 78.6087 28.6241 79.8471 27.9074C83.6801 25.6888 85.0083 20.7589 82.808 16.9175C81.7408 15.0545 80.0132 13.7219 77.9439 13.1647ZM78.455 25.5024C77.2394 26.2056 75.8258 26.3925 74.4741 26.0289C73.1235 25.6652 71.9959 24.795 71.2988 23.5783C69.8567 21.0603 70.7277 17.8287 73.2406 16.3742C74.0503 15.9057 74.9479 15.6664 75.8567 15.6664C76.3121 15.6664 76.7704 15.7264 77.2212 15.8477C78.5719 16.2114 79.6996 17.0816 80.3967 18.2983C81.839 20.8165 80.968 24.0481 78.455 25.5024Z" fill="#F27B42"/>
<path d="M93.9206 25.1758L91.337 22.9498C91.5406 21.4178 91.5176 19.8816 91.2688 18.3644L93.7031 16.2756C94.7801 15.3515 95.0504 13.7873 94.3455 12.5563L92.1106 8.65492C91.4024 7.41898 89.9139 6.86639 88.5717 7.34117L85.3597 8.47653C84.146 7.54457 82.8112 6.80341 81.3748 6.26398L80.7952 3.10929C80.538 1.70793 79.319 0.691315 77.897 0.691315C77.8968 0.691315 77.8965 0.691315 77.8963 0.691315L73.4075 0.69187C71.9887 0.692241 70.7674 1.70663 70.5038 3.10355L69.8682 6.47053C68.4696 7.05701 67.1244 7.86782 65.9511 8.83219L62.9422 7.76742C61.6032 7.29394 60.1141 7.84411 59.4016 9.07709L57.1476 12.9789C56.4364 14.2098 56.7004 15.7751 57.7752 16.701L60.3588 18.927C60.1554 20.4588 60.1782 21.995 60.4271 23.5123L57.9928 25.6011C56.9158 26.5253 56.6456 28.0895 57.3504 29.3205L59.585 33.2217C60.293 34.4576 61.7809 35.0106 63.1241 34.5356L66.336 33.4002C67.5499 34.3322 68.8848 35.0734 70.321 35.6128L70.9006 38.7679C71.1581 40.1688 72.3773 41.1855 73.7995 41.1855L78.2883 41.1849C79.707 41.1845 80.9282 40.1701 81.1919 38.773L81.8273 35.4061C83.2254 34.8194 84.5715 34.0088 85.7445 33.0444L88.7539 34.1092C90.0929 34.583 91.582 34.0319 92.2939 32.7995L94.5482 28.8975C95.2591 27.6668 94.995 26.1017 93.9206 25.1758ZM92.1422 27.5077L89.888 31.4096C89.8454 31.4835 89.7581 31.5169 89.6807 31.4898L85.909 30.1552C85.4246 29.9836 84.8851 30.0937 84.5067 30.4408C83.2426 31.5997 81.7479 32.5037 80.1348 33.0844C79.6715 33.2509 79.3312 33.6503 79.2399 34.134L78.4617 38.2579C78.4453 38.3438 78.3724 38.4063 78.2879 38.4063L73.7995 38.4068C73.7183 38.4068 73.6487 38.3474 73.6335 38.2655L72.9075 34.3137C72.8145 33.808 72.4496 33.3947 71.9592 33.2398C70.313 32.7202 68.8153 31.8907 67.508 30.7744C67.0755 30.4443 66.6205 30.3599 66.1428 30.5212L62.1979 31.9155C62.1206 31.9431 62.0374 31.9122 61.9963 31.8405L59.7617 27.9393C59.7184 27.8637 59.7352 27.767 59.8023 27.7096L62.8473 25.0965C63.2356 24.7635 63.4092 24.2441 63.2997 23.7445C62.9301 22.0602 62.9027 20.3401 63.218 18.6316C63.3077 18.1458 63.1328 17.649 62.7588 17.3269L59.5889 14.5958C59.5244 14.5403 59.5096 14.4449 59.5537 14.3687L61.8077 10.467C61.8503 10.3932 61.9376 10.3597 62.0152 10.3866L65.7869 11.7212C66.271 11.8924 66.8106 11.7826 67.1894 11.4354C68.453 10.2767 69.9479 9.37199 71.5608 8.792C72.0241 8.62546 72.3646 8.22608 72.4559 7.74241L73.2343 3.61834C73.2504 3.53239 73.3236 3.46996 73.408 3.46996H77.8968C77.9778 3.46996 78.0473 3.52924 78.0623 3.6113L78.7884 7.56309C78.8814 8.06881 79.2463 8.48209 79.7367 8.63695C81.3833 9.15674 82.881 9.98607 84.1879 11.1023C84.565 11.4241 85.0852 11.5208 85.5531 11.3556L89.4981 9.96107C89.5762 9.93365 89.6585 9.96477 89.6996 10.0363L91.9342 13.9375C91.9775 14.0131 91.9607 14.1098 91.8936 14.1672L88.8486 16.7802C88.4603 17.1133 88.2868 17.6327 88.3962 18.1323C88.7656 19.8162 88.7932 21.5364 88.4777 23.2452C88.3881 23.7309 88.563 24.2278 88.937 24.5499L92.1068 27.2809C92.1711 27.3363 92.1859 27.4319 92.1422 27.5077Z" fill="#F27B42"/>
<path d="M20.3203 50.7301C20.3196 48.2625 18.2717 46.0813 15.7667 46.0926L14.9846 46.0905L14.9788 39.1419C14.9768 37.0318 11.6858 37.5293 12.2005 39.4968L12.2059 46.0833C10.8757 46.0798 9.54527 46.0763 8.21504 46.0727L8.19522 22.2608C8.19504 22.0147 8.12946 21.7729 8.00535 21.5606L4.6969 15.9031L4.69505 8.44059L15.6792 8.49172L15.6811 15.8648L12.3747 21.5484C12.2509 21.7609 12.1859 22.0022 12.1861 22.2481L12.1937 31.408C11.7287 33.3413 14.9744 33.6831 14.9725 31.7349L14.9651 22.6213L18.2713 16.9381C18.3949 16.7258 18.4599 16.4846 18.4599 16.2391L18.4562 2.08027C18.4562 1.36375 17.7945 0.691315 17.0628 0.691315L3.29999 0.731512C2.5466 0.73355 1.91603 1.36393 1.91474 2.11769L1.91844 16.2801C1.91844 16.5265 1.98402 16.7684 2.10832 16.981L5.41694 22.6389L5.43639 46.0653L4.65319 46.0633C-0.756098 46.0788 -1.44539 54.4237 3.87405 55.3514L3.82885 83.048C3.81681 91.5318 16.5599 91.4671 16.5714 83.0808L16.6167 55.3027C18.7231 54.8901 20.321 52.9953 20.3203 50.7301ZM4.69431 5.66194L4.69376 3.50608L15.6777 3.47385L15.6783 5.71307L4.69431 5.66194ZM10.217 86.7999C8.23727 86.7999 6.60472 84.9921 6.6075 83.0526L6.6527 55.414L13.8379 55.3931L13.7927 83.0769C13.7899 85.1238 12.1857 86.7942 10.217 86.7999ZM15.7607 52.6087L4.65467 52.6411C2.40785 52.6411 2.42731 48.8484 4.65356 48.8421L15.767 48.8712C17.9964 48.8712 18.0124 52.602 15.7607 52.6087Z" fill="#0052CC"/>
<path d="M89.1094 79.44L89.1067 73.2972C89.1026 63.2118 84.5482 53.8018 76.6116 47.48C75.8192 46.8485 74.4817 46.7844 73.6235 47.3374C70.5916 45.279 67.2696 43.7855 63.7185 42.8873C63.8586 42.1419 63.7076 41.1162 62.9694 40.7325C58.5495 38.4363 53.2728 38.4381 48.8552 40.7385C48.1172 41.1227 47.9671 42.1496 48.1079 42.8951C46.4785 43.3085 44.8973 43.847 43.3701 44.5083L43.5063 28.1503C49.1669 26.7463 52.1566 23.0889 52.1727 17.5147C52.1907 11.3406 48.5256 4.23112 43.6476 0.977883C42.4684 0.500511 41.7483 0.884335 41.4875 2.12972L41.4538 13.677C41.403 14.2982 41.0729 14.6401 40.4635 14.7031L34.604 14.6738C34.0565 14.6711 33.6124 14.2039 33.6141 13.632L33.6476 2.08453C33.3951 0.839877 32.6786 0.451051 31.4977 0.918049C26.5989 4.12387 22.8911 11.1985 22.8731 17.3741C22.857 22.9433 25.822 26.6281 31.4675 28.089L31.3139 51.1582C25.8155 57.2003 22.742 65.035 22.7455 73.325L22.7481 79.4522C17.2697 81.1248 18.3291 89.5115 24.186 89.5115C28.2839 89.5115 32.116 90.7298 35.6933 92.6508C39.2853 94.5383 43.3299 95.5358 47.3903 95.5358H47.4008L64.4702 95.5286C68.5345 95.5267 72.582 94.5258 76.1754 92.634C79.7493 90.6909 83.5792 89.4865 87.6779 89.4848C93.455 89.4826 94.679 81.0668 89.1094 79.44ZM72.4559 49.9065L72.4627 66.2C72.4631 66.9672 73.085 67.5887 73.8521 67.5887H73.8526C74.6201 67.5883 75.2418 66.9661 75.2414 66.1988L75.2345 49.9397C82.2869 55.7274 86.3243 64.2147 86.3282 73.2985L86.331 79.2227H75.2471L75.2445 73.5837C75.2442 72.8165 74.6223 72.195 73.8552 72.195C73.855 72.195 73.8548 72.195 73.8547 72.195C73.0872 72.1953 72.4655 72.8176 72.4659 73.5849L72.4683 79.2229H63.7341L63.72 45.7624C66.8517 46.6364 69.781 48.0261 72.4559 49.9065ZM60.9401 42.8404L60.9554 79.2225H50.9021L50.8867 42.8445C54.0866 41.44 57.7389 41.4385 60.9401 42.8404ZM48.1233 79.2227H39.3892L39.3768 49.9204C42.0214 48.058 44.9951 46.6422 48.1092 45.77L48.1233 79.2227ZM25.652 17.3823C25.6644 13.1063 27.8258 8.17921 30.8605 5.04971L30.8356 13.6241C30.8295 15.7249 32.5139 17.4423 34.5905 17.4527L40.4499 17.4819C42.4754 17.4819 44.2269 15.7058 44.2326 13.6852L44.2576 5.12103C47.2743 8.28183 49.4068 13.2306 49.3942 17.5069C49.3811 22.0587 46.9209 24.7262 41.8732 25.6615C41.2189 25.7827 40.7424 26.3506 40.7369 27.016L40.5798 45.8845C39.7703 46.336 38.9797 46.8267 38.2068 47.3524C37.3486 46.8002 36.0108 46.865 35.219 47.4974C34.8412 47.799 34.4734 48.1097 34.1109 48.4251L34.2536 26.9906C34.2578 26.3228 33.7866 25.746 33.1308 25.618C28.085 24.631 25.6386 21.9372 25.652 17.3823ZM36.598 49.9558L36.6104 79.2225H25.5266L25.524 73.3238C25.5205 64.2403 29.5504 55.7495 36.598 49.9558ZM89.3923 85.9789C88.9396 86.4476 88.3301 86.7058 87.6766 86.7062C83.1335 86.708 78.8527 88.0422 74.8807 90.1752C71.6847 91.8582 68.0845 92.7486 64.4691 92.7499L47.3997 92.7571C47.3962 92.7571 47.3936 92.7571 47.3903 92.7571C43.7786 92.757 40.1806 91.8698 36.9857 90.191C33.1373 88.1329 28.6294 86.4859 24.186 86.7329C21.073 86.7329 21.1335 82.0025 24.283 82.0012H38.0003H49.513H62.3449H73.8578H87.5754C89.5342 82.1181 90.9218 84.3958 89.3923 85.9789Z" fill="#0052CC"/>
</svg>
