<svg width="110" height="109" viewBox="0 0 110 109" fill="none" xmlns="http://www.w3.org/2000/svg">
<path d="M38.3563 43.4913C39.4315 43.4913 40.4826 43.1724 41.3766 42.5751C42.2706 41.9777 42.9674 41.1286 43.3789 40.1353C43.7904 39.1419 43.898 38.0488 43.6883 36.9943C43.4785 35.9397 42.9607 34.971 42.2004 34.2107C41.4402 33.4504 40.4715 32.9327 39.4169 32.7229C38.3624 32.5131 37.2693 32.6208 36.2759 33.0323C35.2825 33.4437 34.4335 34.1405 33.8361 35.0345C33.2388 35.9286 32.9199 36.9796 32.9199 38.0548C32.9216 39.4962 33.4948 40.878 34.514 41.8972C35.5332 42.9163 36.915 43.4896 38.3563 43.4913ZM38.3563 36.2427C38.7147 36.2427 39.0651 36.349 39.3631 36.5481C39.6611 36.7472 39.8934 37.0303 40.0305 37.3614C40.1677 37.6925 40.2036 38.0569 40.1336 38.4084C40.0637 38.7599 39.8911 39.0828 39.6377 39.3362C39.3843 39.5897 39.0614 39.7622 38.7099 39.8322C38.3583 39.9021 37.994 39.8662 37.6629 39.729C37.3317 39.5919 37.0487 39.3596 36.8496 39.0616C36.6505 38.7636 36.5442 38.4133 36.5442 38.0548C36.5447 37.5744 36.7358 37.1138 37.0756 36.7741C37.4153 36.4344 37.8759 36.2433 38.3563 36.2427Z" fill="#0052CC"/>
<path d="M52.8533 76.1097H56.4776C56.4704 73.5807 57.2222 71.1077 58.6356 69.0105C60.0491 66.9133 62.0593 65.2885 64.4062 64.3461L63.0462 60.9868C60.029 62.1983 57.4448 64.2871 55.6277 66.9832C53.8105 69.6792 52.8441 72.8585 52.8533 76.1097Z" fill="#F27B42"/>
<path d="M104.726 91.9603L105.691 89.7089C106.734 87.2689 106.806 84.5228 105.893 82.0312C104.981 79.5395 103.152 77.49 100.779 76.3011L99.1584 79.5426C100.705 80.3176 101.897 81.6533 102.492 83.2773C103.086 84.9012 103.039 86.691 102.359 88.2812L101.319 90.7079C99.0959 90.3695 96.826 90.8688 94.9497 92.109C93.0735 93.3492 91.7245 95.2418 91.1645 97.4201C90.6044 99.5983 90.8731 101.907 91.9184 103.898C92.9638 105.89 94.7113 107.422 96.8223 108.198C98.9332 108.974 101.257 108.939 103.343 108.099C105.43 107.259 107.13 105.674 108.114 103.652C109.099 101.63 109.297 99.3139 108.671 97.1537C108.045 94.9935 106.639 93.1428 104.726 91.9603ZM99.9688 105.104C98.8936 105.104 97.8426 104.785 96.9485 104.188C96.0545 103.59 95.3577 102.741 94.9463 101.748C94.5348 100.755 94.4271 99.6615 94.6369 98.6069C94.8467 97.5523 95.3644 96.5837 96.1247 95.8234C96.885 95.0631 97.8537 94.5453 98.9083 94.3355C99.9628 94.1258 101.056 94.2334 102.049 94.6449C103.043 95.0564 103.892 95.7532 104.489 96.6472C105.086 97.5412 105.405 98.5923 105.405 99.6675C105.404 101.109 104.83 102.491 103.811 103.51C102.792 104.529 101.41 105.102 99.9688 105.104Z" fill="#0052CC"/>
<path d="M108.033 41.102C107.13 39.0527 105.662 37.3028 103.801 36.0569L109.962 32.3603L108.097 29.2523L102.788 32.4378L105.351 22.1852L101.835 21.3061L98.8478 33.2551L94.3859 22.8439L91.0547 24.2716L95.1598 33.8501C92.0751 34.1714 89.2432 35.7015 87.2839 38.1056V35.2862C87.2829 34.4423 87.0865 33.6101 86.71 32.8549L78.2232 15.8814V5.43641C78.2232 4.9558 78.0323 4.49488 77.6924 4.15504C77.3526 3.8152 76.8917 3.62428 76.4111 3.62427H61.914C61.4334 3.62428 60.9725 3.8152 60.6326 4.15504C60.2928 4.49488 60.1019 4.9558 60.1019 5.43641V15.8814L55.5715 24.9421L48.5369 10.8728H49.229C49.5044 10.8728 49.7762 10.81 50.0237 10.6892C50.2712 10.5685 50.4879 10.3929 50.6573 10.1758C50.8268 9.95878 50.9446 9.70595 51.0017 9.43656C51.0589 9.16717 51.0539 8.8883 50.9871 8.62114L49.175 1.3726C49.0769 0.980532 48.8507 0.632486 48.5321 0.383784C48.2136 0.135081 47.821 -4.40552e-06 47.4169 1.07759e-10H29.2956C28.8914 -4.40552e-06 28.4989 0.135081 28.1803 0.383784C27.8618 0.632486 27.6355 0.980532 27.5375 1.3726L25.7254 8.62114C25.6586 8.8883 25.6536 9.16717 25.7107 9.43656C25.7679 9.70595 25.8856 9.95878 26.0551 10.1758C26.2246 10.3929 26.4413 10.5685 26.6888 10.6892C26.9363 10.81 27.208 10.8728 27.4834 10.8728H28.1756L20.8088 25.6064C20.4323 26.3616 20.2359 27.1938 20.2349 28.0377V54.3641H15.9087L14.9858 37.7534C14.9083 36.366 14.3027 35.061 13.2933 34.1061C12.2839 33.1512 10.9473 32.6189 9.55784 32.6184H0.301392V36.2427H9.55784C10.021 36.2429 10.4665 36.4203 10.8029 36.7386C11.1393 37.0568 11.3412 37.4918 11.3671 37.9542L12.2788 54.3641H2.11353C1.86468 54.3641 1.61849 54.4153 1.39032 54.5147C1.16215 54.614 0.956886 54.7592 0.787311 54.9414C0.617737 55.1235 0.48749 55.3386 0.404689 55.5733C0.321888 55.808 0.288306 56.0572 0.306037 56.3054L3.68986 103.679C3.7922 105.049 4.40738 106.329 5.41257 107.265C6.41776 108.201 7.73899 108.724 9.11245 108.728H31.3573C32.7308 108.724 34.052 108.201 35.0572 107.265C36.0624 106.329 36.6776 105.049 36.7799 103.679L37.0661 99.6732C41.2337 104.644 47.1496 107.826 53.5943 108.564C60.039 109.301 66.521 107.538 71.704 103.638C71.9085 104.971 72.5391 106.202 73.5014 107.147C74.4638 108.092 75.7061 108.701 77.0428 108.881C78.3795 109.061 79.7387 108.804 80.9171 108.148C82.0956 107.492 83.03 106.472 83.5807 105.241L108.002 50.6522C108.672 49.1504 109.021 47.525 109.027 45.8804C109.032 44.2357 108.693 42.6081 108.033 41.102ZM35.6572 83.3582H52.1026L42.5126 92.9483C39.7191 90.6825 37.5247 87.7655 36.1219 84.4534L35.6572 83.3582ZM54.6654 85.921V97.7893C51.465 97.5449 48.3571 96.6015 45.5608 95.0257L54.6654 85.921ZM58.2897 85.921L67.2922 94.9235C64.5322 96.5108 61.4608 97.4806 58.2897 97.7662V85.921ZM70.3244 92.8301L60.8525 83.3582H77.1589L76.2009 85.3595C74.8128 88.25 72.8067 90.8003 70.3244 92.8301ZM76.6376 79.734H49.5593C49.057 77.0085 49.1283 74.2082 49.7686 71.5118C50.4089 68.8154 51.6041 66.282 53.2781 64.0733C54.9521 61.8646 57.068 60.029 59.4909 58.6836C61.9138 57.3382 64.5906 56.5126 67.3504 56.2594V59.8005H70.9747V56.2585C74.6247 56.5908 78.1121 57.9246 81.0524 60.1128L76.6376 79.734ZM52.8533 28.9942V47.1155H23.8591V28.9942H52.8533ZM63.034 18.1214H75.2911L80.7275 28.9942H57.5976L63.034 18.1214ZM56.4776 32.6184H82.5396L83.4684 34.4759C83.5938 34.7276 83.6593 35.005 83.6596 35.2862V48.5252L81.9096 56.303C78.6263 54.1889 74.8683 52.9254 70.9747 52.6267V50.8898C70.9675 48.2367 71.9055 45.6678 73.6204 43.6434C75.3353 41.619 77.715 40.2715 80.3332 39.8424L79.7375 36.2673C76.2721 36.8353 73.1222 38.6189 70.8523 41.2984C68.5825 43.9779 67.341 47.3781 67.3504 50.8898V52.6209C63.4799 52.9156 59.7435 54.1684 56.4776 56.2664V32.6184ZM63.7261 7.24854H74.5989V14.4971H63.7261V7.24854ZM30.7104 3.62427H46.0021L46.9081 7.24854H29.8043L30.7104 3.62427ZM44.4848 10.8728L51.7333 25.3699H24.9791L32.2277 10.8728H44.4848ZM23.8591 50.7398H52.8533V59.1268C50.5606 61.3212 48.7362 63.9573 47.4904 66.8762C46.2446 69.7951 45.6032 72.9361 45.6048 76.1097C45.605 77.3231 45.6982 78.5348 45.8836 79.734H38.4903L40.1637 56.3054C40.1815 56.0572 40.1479 55.808 40.0651 55.5733C39.9823 55.3386 39.852 55.1235 39.6824 54.9414C39.5129 54.7592 39.3076 54.614 39.0794 54.5147C38.8513 54.4153 38.6051 54.3641 38.3562 54.3641H23.8591V50.7398ZM36.41 57.9883L35.8923 65.2369H16.5127L16.11 57.9883H36.41ZM12.4801 57.9883L12.8828 65.2369H4.57746L4.05971 57.9883H12.4801ZM33.1649 103.421C33.1308 103.877 32.9257 104.304 32.5907 104.616C32.2556 104.928 31.8152 105.102 31.3573 105.104H9.11245C8.6546 105.102 8.21417 104.928 7.8791 104.616C7.54402 104.304 7.33896 103.877 7.30484 103.421L4.83633 68.8611H13.0842L14.8012 99.7679L18.42 99.567L16.7141 68.8611H35.6334L34.8568 79.734H32.9198C32.4392 79.734 31.9783 79.9249 31.6385 80.2647C31.2986 80.6046 31.1077 81.0655 31.1077 81.5461V83.3582C31.1034 87.2957 32.0213 91.1794 33.7879 94.6983L33.1649 103.421ZM36.5904 92.1496C39.0356 95.1179 42.1176 97.4975 45.6079 99.1122C49.0982 100.727 52.9072 101.535 56.7524 101.477C60.5977 101.418 64.3804 100.495 67.8202 98.7757C71.26 97.0561 74.2685 94.5841 76.6227 91.5432C75.0159 95.4991 72.2799 98.8943 68.7561 101.305C65.2323 103.716 61.0766 105.037 56.8073 105.101C52.5381 105.166 48.3443 103.972 44.7491 101.669C41.1538 99.3658 38.3163 96.055 36.5904 92.1496ZM80.2722 103.761C80.0064 104.355 79.5293 104.829 78.9336 105.091C78.3378 105.353 77.666 105.384 77.0485 105.179C76.4309 104.973 75.9118 104.546 75.5919 103.979C75.272 103.412 75.1742 102.747 75.3174 102.112L75.8551 99.7133C77.5448 97.7161 78.916 95.47 79.92 93.0543L83.4727 96.6069L80.2722 103.761ZM104.693 49.1723L102.981 53.001L97.6259 47.6462L95.0632 50.2091L101.396 56.5423L97.9396 64.2691L92.1895 58.519L89.6268 61.0819L96.3553 67.8105L91.7784 78.0414L86.7531 73.0161L84.1904 75.579L90.1941 81.5827L85.057 93.0656L81.1722 89.1808C81.6217 87.2726 81.8483 85.3187 81.8475 83.3582V81.5461C81.8472 81.1196 81.6965 80.7068 81.4219 80.3806C81.1472 80.0543 80.7662 79.8354 80.346 79.7624L87.2838 48.9277L88.4445 43.7689C88.6948 42.6568 89.1754 41.6096 89.8553 40.6948C90.5352 39.7799 91.3994 39.0178 92.392 38.4575C93.3847 37.8973 94.4837 37.5513 95.6183 37.442C96.7529 37.3328 97.8978 37.4625 98.9791 37.823L99.8286 38.1062C100.908 38.4671 101.901 39.0498 102.743 39.8168C103.584 40.5839 104.256 41.5184 104.715 42.5604C105.179 43.6014 105.417 44.7289 105.413 45.8687C105.41 47.0084 105.164 48.1344 104.693 49.1723Z" fill="#0052CC"/>
</svg>
