<svg width="97" height="103" viewBox="0 0 97 103" fill="none" xmlns="http://www.w3.org/2000/svg">
<path d="M40.1158 62.5865H34.13V56.6007C34.13 55.4989 33.2364 54.6053 32.1346 54.6053C31.0327 54.6053 30.1394 55.4989 30.1394 56.6007V62.5865H24.1536C23.0517 62.5865 22.1582 63.48 22.1582 64.5817C22.1582 65.6834 23.0517 66.5771 24.1536 66.5771H30.1394V72.5629C30.1394 73.6648 31.0329 74.5583 32.1346 74.5583C33.2362 74.5583 34.13 73.6648 34.13 72.5629V66.5771H40.1158C41.2176 66.5771 42.1112 65.6836 42.1112 64.5817C42.1112 63.4798 41.2178 62.5865 40.1158 62.5865Z" fill="#F27B42"/>
<path d="M93.969 64.3824C89.5581 56.7428 79.8054 54.1282 72.1645 58.54L64.0596 63.2192V45.892C64.0596 43.75 63.3512 41.6243 62.0644 39.9062L52.088 26.6047V20.9406C54.4102 20.1169 56.0786 17.8992 56.0786 15.2978V6.11955C56.0782 2.81896 53.393 0.133759 50.0924 0.133759H14.177C10.8764 0.133759 8.19103 2.81896 8.19103 6.11955V15.298C8.19103 17.899 9.85938 20.1171 12.1816 20.9408V26.6049L2.20444 39.9072C0.918205 41.6245 0.209839 43.75 0.209839 45.892V84.5349C0.209839 90.036 4.68531 94.5113 10.1862 94.5113H42.2527C46.7265 102.011 56.3735 104.52 63.9354 100.154L88.1268 86.1869C95.7004 81.8134 98.4019 72.0636 93.969 64.3824ZM12.1816 6.11955C12.1816 5.01929 13.0768 4.12415 14.1768 4.12415H50.0922C51.1924 4.12415 52.0876 5.01929 52.0876 6.11955V15.298C52.0876 16.3982 51.1924 17.2932 50.0922 17.2932H14.177C13.0768 17.2932 12.1818 16.398 12.1818 15.298L12.1816 6.11955ZM5.39787 42.3003L15.7731 28.467C16.0321 28.1218 16.1722 27.7016 16.1722 27.2698V21.284H48.097V25.2746H30.1394C29.0375 25.2746 28.144 26.1681 28.144 27.27C28.144 28.3718 29.0375 29.2654 30.1394 29.2654H49.0947L58.8707 42.2997C59.5097 43.1527 59.9065 44.1734 60.0265 45.2277H4.24294C4.36266 44.1732 4.75954 43.1525 5.39787 42.3003ZM10.1864 90.5207C6.88584 90.5207 4.20063 87.8355 4.20063 84.5349V82.5197H40.452C39.8193 85.1068 39.8235 87.87 40.548 90.5209H10.1864V90.5207ZM42.017 78.5489H4.20043V49.2179H60.0688V65.5229L47.9729 72.5072C45.4509 73.9641 43.4124 76.0379 42.017 78.5489ZM61.9404 96.698C56.2143 100.005 48.8971 98.0491 45.5884 92.3189C42.2638 86.5335 44.2786 79.2495 49.9687 75.9629L60.7991 69.7097L72.7709 90.4448L61.9404 96.698ZM86.1314 82.731L76.2269 88.4497L64.2549 67.7141L74.1597 61.9961C79.8896 58.6881 87.2042 60.647 90.5129 66.3774C93.8363 72.1365 91.8153 79.4488 86.1314 82.731Z" fill="#0052CC"/>
</svg>
