<svg width="502" height="76" viewBox="0 0 502 76" fill="none" xmlns="http://www.w3.org/2000/svg">
<path d="M111.901 49.6535C109.94 49.6535 109.343 49.0484 109.341 47.0686V34.3036H118.709V29.1338L112.387 29.1287C112.019 29.1287 111.672 29.273 111.407 29.5363L109.299 31.6199V22.8525L103.812 27.9185V28.0198C103.812 30.1819 103.812 32.3465 103.812 34.5086C103.812 35.7897 103.81 37.0707 103.805 38.3518C103.793 41.3772 103.783 44.5039 103.854 47.58C103.948 51.5877 107.112 54.7777 111.06 54.841C111.977 54.8562 112.898 54.8612 113.817 54.8612C114.623 54.8612 115.426 54.8587 116.215 54.8536L117.957 54.8486C118.107 54.8486 118.249 54.8182 118.377 54.7929C118.429 54.7827 118.478 54.7726 118.527 54.765L118.714 54.7346V49.656H111.903L111.901 49.6535Z" fill="#0052CC"/>
<path d="M13.8253 22.5513C10.0097 22.5462 6.19659 22.5487 2.38099 22.5513H1.06162C0.872437 22.5513 0.683254 22.5639 0.489157 22.5791L0.00268555 22.607V54.8511H4.46446C5.86 54.8511 7.24816 54.8511 8.63387 54.8511C10.3734 54.8511 12.1055 54.8511 13.8401 54.8486C18.3436 54.841 21.4934 51.5978 21.5008 46.9597C21.5106 41.6684 21.5082 35.7669 21.5008 30.4781C21.4959 25.7438 18.41 22.5589 13.8253 22.5513ZM15.9555 47.5015C15.9555 48.942 15.27 49.6459 13.8647 49.6509C11.7566 49.6585 9.64612 49.656 7.53808 49.6535H5.95582C5.83297 49.6535 5.70767 49.6433 5.56271 49.6332H5.5234V27.7919C5.5234 27.7919 5.53323 27.7919 5.53814 27.7919C5.6831 27.7717 5.81823 27.7514 5.94844 27.7514C8.58473 27.7464 11.221 27.7413 13.8573 27.7514C15.2651 27.7565 15.9506 28.4578 15.953 29.8933C15.9604 35.5593 15.9604 41.838 15.953 47.504L15.9555 47.5015Z" fill="#0052CC"/>
<path d="M69.3738 29.1337L68.4328 29.1261C67.3443 29.116 66.2191 29.1059 65.111 29.154C64.6442 29.1742 64.1135 29.3844 63.7277 29.7008C63.1725 30.154 62.6688 30.6426 62.0841 31.2097C61.9514 31.3389 61.8138 31.473 61.6713 31.6072V29.1641H56.2169V63.9071H61.6934V54.8511H64.0029C65.8161 54.8536 67.5827 54.8561 69.3492 54.8511C73.7741 54.8384 76.9337 51.7041 77.032 47.228C77.1057 43.8912 77.1082 40.3771 77.032 36.7871C76.9411 32.3718 73.7201 29.154 69.3738 29.1337ZM71.4867 47.8027C71.4769 48.8483 70.7546 49.618 69.7718 49.6332C67.8431 49.6635 65.9488 49.6585 63.9464 49.6509C63.2167 49.6509 62.4845 49.6458 61.7425 49.6458V34.3288H67.3886C68.0814 34.3238 68.7743 34.3212 69.4671 34.3314C70.7177 34.3491 71.472 35.058 71.4843 36.2251C71.5285 39.8683 71.5285 43.6532 71.4843 47.8002L71.4867 47.8027Z" fill="#0052CC"/>
<path d="M260.164 42.4787C264.038 39.6204 265.859 35.4582 265.888 29.4023V29.1745H260.417L260.402 29.3871C260.215 32.2682 259.874 35.0253 257.813 37.0811C255.867 39.0229 253.373 39.5292 250.555 39.9065V22.4097H245.118V54.7905H250.577V51.5372C250.584 49.7828 250.587 47.9675 250.565 46.1801C250.557 45.6586 250.646 45.5598 251.162 45.5117C252.356 45.4029 253.466 45.2079 254.461 44.937C255.053 44.775 255.243 44.9244 255.51 45.456C256.953 48.3118 258.464 51.1929 259.921 53.9804L259.992 54.1145C260.235 54.5779 260.476 54.8158 260.714 54.8234C261.714 54.8488 262.707 54.8538 263.726 54.8538C264.129 54.8538 264.537 54.8538 264.952 54.8538H266.601L260.161 42.4838L260.164 42.4787Z" fill="#0052CC"/>
<path d="M92.9578 29.1337C90.4296 29.1211 87.9014 29.1261 85.3732 29.1287H83.1718C82.9999 29.1312 82.8279 29.1489 82.651 29.1666C82.5723 29.1742 82.4913 29.1818 82.4077 29.1894L82.2038 29.2046V34.3288H85.5698C87.7614 34.3288 89.9505 34.3238 92.1421 34.3364C92.6408 34.339 93.1371 34.3947 93.6113 34.4985C93.9897 34.582 94.6457 34.8402 94.7808 35.6301C94.8815 36.2251 94.9184 36.8302 94.9577 37.4682C94.97 37.6707 94.9823 37.8733 94.997 38.0809C94.1862 38.0809 93.3902 38.0809 92.6015 38.0758C90.6679 38.0707 88.8424 38.0657 86.9874 38.0859C83.4151 38.1214 80.5478 40.4911 79.8501 43.9823C79.6191 45.1419 79.5749 46.4634 79.7149 48.1394C79.9926 51.4813 82.4692 54.2206 85.6042 54.6561C86.7344 54.8131 87.8891 54.846 89.0291 54.846C89.4542 54.846 89.8792 54.8409 90.2994 54.8359C90.7515 54.8308 91.2134 54.8257 91.6581 54.8257C92.0463 54.8257 92.5352 54.6257 92.9013 54.3169C93.4639 53.8409 93.9823 53.3421 94.5818 52.7624C94.712 52.6358 94.8447 52.5067 94.9823 52.375V54.8029H100.412L100.437 54.6029C100.444 54.5447 100.451 54.4915 100.459 54.4409C100.476 54.3244 100.491 54.2232 100.491 54.1194C100.491 52.4079 100.496 50.6965 100.501 48.985C100.513 44.9191 100.528 40.7139 100.461 36.5795C100.392 32.2148 97.3065 29.1514 92.9578 29.1312V29.1337ZM94.9159 43.2912V49.6534H91.8079C90.3436 49.6534 88.8817 49.6559 87.4174 49.6534C85.8351 49.6483 85.1546 48.942 85.1447 47.2888L85.1398 46.8001C85.1325 46.2735 85.1276 45.7292 85.157 45.2001C85.2185 44.1089 85.9138 43.3317 86.8474 43.3139C88.0169 43.2886 89.2011 43.281 90.378 43.281C91.1667 43.281 91.9554 43.2836 92.7293 43.2861C93.4541 43.2886 94.1838 43.2912 94.9159 43.2937V43.2912Z" fill="#0052CC"/>
<path d="M213.463 29.1468C210.974 29.1113 208.443 29.1189 205.994 29.1291C204.994 29.1316 203.994 29.1366 202.994 29.1366C202.89 29.1366 202.785 29.1544 202.684 29.1746L202.384 29.2202V34.3318H204.996C207.416 34.3292 209.809 34.3292 212.202 34.3394C212.711 34.3394 213.207 34.39 213.679 34.4837C214.453 34.6356 214.917 35.1444 215.015 35.9546C215.077 36.4534 215.096 36.9673 215.116 37.5116C215.123 37.6964 215.131 37.8863 215.138 38.0838H214.298C213.551 38.0838 212.797 38.0838 212.047 38.0787C210.387 38.0737 208.669 38.0686 206.976 38.0964C203.603 38.1547 200.758 40.5016 200.055 43.808C199.795 45.0359 199.733 46.4512 199.866 48.1348C200.131 51.4767 202.603 54.2211 205.745 54.659C206.878 54.816 208.038 54.8515 209.183 54.8515C209.603 54.8515 210.02 54.8464 210.436 54.8413C210.853 54.8363 211.273 54.8312 211.691 54.8312C211.728 54.8312 211.757 54.8236 211.804 54.8312C212.197 54.8312 212.686 54.6337 213.047 54.3274C213.61 53.8514 214.153 53.3273 214.725 52.7729C214.856 52.6463 214.991 52.5172 215.128 52.3855V54.778H220.617V54.5502C220.617 52.7147 220.625 50.8868 220.632 49.0639C220.649 44.8562 220.666 40.5067 220.588 36.2407C220.516 32.2532 217.453 29.2025 213.46 29.1468H213.463ZM215.079 43.284V49.6538H209.676C208.907 49.6589 208.138 49.6614 207.369 49.6513C206.099 49.6336 205.345 48.8867 205.303 47.6006C205.274 46.7221 205.276 45.9524 205.308 45.2511C205.36 44.0992 206.087 43.3143 207.116 43.2992C208.249 43.2814 209.372 43.2764 210.509 43.2764C211.286 43.2764 212.07 43.2764 212.873 43.2814C213.603 43.2814 214.335 43.2865 215.077 43.2865L215.079 43.284Z" fill="#0052CC"/>
<path d="M47.8805 39.6685C46.3032 39.4406 44.6718 39.4583 43.0994 39.4761C42.4483 39.4837 41.7972 39.4913 41.1437 39.4811C39.527 39.4583 38.7752 38.6305 38.7727 36.8785C38.7703 35.1924 39.554 34.3341 41.1043 34.3316C43.4679 34.3265 45.8315 34.3291 48.195 34.3291H52.2735V29.1896L51.8853 29.1567C51.7551 29.1441 51.6372 29.1339 51.5193 29.1339H49.1999C46.3867 29.1289 43.4826 29.1263 40.6228 29.1466C40.0233 29.1517 39.3648 29.2504 38.7236 29.4327C35.1094 30.4631 32.854 34.0911 33.3577 38.0558C33.8515 41.947 36.7679 44.6028 40.6105 44.6661C41.4311 44.6788 42.2517 44.6762 43.0723 44.6737C44.1337 44.6686 45.232 44.6661 46.3106 44.699C46.7897 44.7142 47.3179 44.894 47.6594 45.1598C48.3572 45.7041 48.5906 47.1801 48.1606 48.3194C47.7921 49.2916 47.2147 49.6536 46.0256 49.6536C43.463 49.6562 40.9004 49.6536 38.3329 49.6536H34.0186V54.8361H34.2397C35.537 54.8361 36.8293 54.8437 38.1192 54.8513C39.3771 54.8589 40.6523 54.8665 41.9323 54.8665C43.6178 54.8665 45.3131 54.8538 46.9887 54.8082C50.5488 54.712 53.6126 51.6132 53.8165 47.9017C54.0622 43.4559 51.733 40.2229 47.883 39.6685H47.8805Z" fill="#0052CC"/>
<path d="M139.192 29.1364L136.399 29.1314C133.984 29.1263 131.568 29.1238 129.153 29.1339C124.854 29.1542 121.689 32.3821 121.628 36.8076C121.581 40.1849 121.581 43.6686 121.628 47.1598C121.689 51.6714 124.812 54.8335 129.222 54.8487C130.431 54.8538 131.64 54.8538 132.848 54.8538C134.057 54.8538 135.283 54.8538 136.499 54.8513H138.752C138.924 54.8487 139.096 54.8361 139.276 54.8259L139.745 54.7981V49.6536H135.775C133.662 49.6536 131.551 49.6536 129.441 49.6536C127.795 49.6536 127.151 49.0055 127.146 47.3523C127.136 43.5901 127.136 40.0913 127.146 36.6582C127.151 34.9873 127.79 34.3341 129.423 34.3316C131.593 34.329 133.762 34.329 135.932 34.3316H139.762V29.2099L139.411 29.1618C139.318 29.1466 139.254 29.139 139.192 29.139V29.1364Z" fill="#0052CC"/>
<path d="M241.113 29.1342H239.206C236.666 29.1291 234.123 29.1266 231.582 29.1342C227.167 29.1494 224.04 32.309 223.978 36.8155C223.932 40.251 223.932 43.7322 223.978 47.1677C224.04 51.6767 227.167 54.8338 231.58 54.849C232.811 54.8541 234.039 54.8541 235.27 54.8541C236.622 54.8541 237.973 54.8541 239.324 54.8515H241.11C241.282 54.8515 241.454 54.8363 241.634 54.8237L242.096 54.7958V49.6539H238.157C236.005 49.6539 233.853 49.6564 231.7 49.6539C230.165 49.6513 229.506 48.9855 229.501 47.4335C229.489 44.0891 229.489 40.5624 229.501 36.6509C229.506 34.985 230.148 34.3369 231.786 34.3318C233.956 34.3293 236.125 34.3293 238.295 34.3318H242.113V29.1899L241.641 29.1595C241.457 29.1468 241.285 29.1342 241.113 29.1342Z" fill="#0052CC"/>
<path d="M183.893 22.4453H163.951V27.5873H171.179V54.8034H176.697V27.5797H183.893V22.4453Z" fill="#0052CC"/>
<path d="M197.495 29.1337C195.51 29.1312 193.525 29.1312 191.539 29.1337C186.766 29.1388 183.68 32.3262 183.672 37.2581C183.667 41.7848 183.67 46.3115 183.672 50.8383V53.6485C183.672 53.8612 183.687 54.0738 183.699 54.2941L183.726 54.8232H189.2V48.5293C189.2 44.6836 189.2 40.8405 189.2 36.9948C189.2 34.8808 189.724 34.3314 191.748 34.3314H193.483C194.834 34.3314 196.183 34.3314 197.532 34.3314C197.721 34.3314 197.91 34.3187 198.107 34.3035L198.581 34.2732V29.1869L198.07 29.1591C197.871 29.1464 197.682 29.1363 197.495 29.1363V29.1337Z" fill="#0052CC"/>
<path d="M30.3627 31.1772H24.9599V54.8211H30.3627V31.1772Z" fill="#0052CC"/>
<path d="M30.3627 22.5693H24.9599V27.924H30.3627V22.5693Z" fill="#F27B42"/>
<path d="M164.341 38.58C164.265 34.671 161.7 31.7368 157.953 31.276C156.484 31.0962 154.973 31.1291 153.511 31.1646C153 31.1772 152.487 31.1874 151.976 31.1924C151.664 31.1924 151.359 31.438 151.125 31.6507C150.573 32.1596 150.03 32.6811 149.423 33.2659L149.162 33.514V36.3698H156.369C158.219 36.3698 158.843 37.023 158.843 38.9547C158.843 42.8435 158.843 44.7043 158.843 48.5905V54.8034H164.226L164.277 54.6515C164.29 54.616 164.302 54.5856 164.312 54.5603C164.336 54.4996 164.363 54.4363 164.363 54.3553C164.363 52.6236 164.373 50.8893 164.381 49.1551C164.398 45.0233 164.417 42.7776 164.336 38.575L164.341 38.58Z" fill="#0052CC"/>
<path d="M149.165 22.8525H143.566V54.8612H149.165V22.8525Z" fill="#0052CC"/>
<line x1="288" y1="15.5" x2="288" y2="60.5" stroke="#306EF2" stroke-width="2"/>
<path d="M307 57.49V17.5109H311.765V57.49H307Z" fill="#F27B42"/>
<path d="M340.973 29.3951H345.737V56.7781H340.973V52.0682C338.599 55.6827 335.149 57.49 330.621 57.49C326.787 57.49 323.52 56.1026 320.818 53.3278C318.116 50.5165 316.765 47.1027 316.765 43.0866C316.765 39.0704 318.116 35.6749 320.818 32.9002C323.52 30.0888 326.787 28.6832 330.621 28.6832C335.149 28.6832 338.599 30.4904 340.973 34.105V29.3951ZM331.224 52.8897C333.999 52.8897 336.317 51.9587 338.179 50.0966C340.041 48.1981 340.973 45.8614 340.973 43.0866C340.973 40.3118 340.041 37.9934 338.179 36.1313C336.317 34.2328 333.999 33.2835 331.224 33.2835C328.485 33.2835 326.185 34.2328 324.323 36.1313C322.461 37.9934 321.53 40.3118 321.53 43.0866C321.53 45.8614 322.461 48.1981 324.323 50.0966C326.185 51.9587 328.485 52.8897 331.224 52.8897Z" fill="#F27B42"/>
<path d="M356.543 36.7885C356.543 37.8473 357.072 38.7053 358.131 39.3625C359.19 39.9832 360.468 40.4944 361.965 40.896C363.462 41.2611 364.959 41.6992 366.456 42.2103C367.953 42.685 369.231 43.5247 370.29 44.7296C371.349 45.8979 371.878 47.4131 371.878 49.2752C371.878 51.7579 370.91 53.7477 368.975 55.2446C367.076 56.7416 364.63 57.49 361.636 57.49C358.971 57.49 356.689 56.9059 354.79 55.7375C352.892 54.5692 351.541 53.0175 350.737 51.0824L354.845 48.7275C355.283 50.0419 356.105 51.0824 357.31 51.8491C358.514 52.6159 359.957 52.9992 361.636 52.9992C363.207 52.9992 364.502 52.7072 365.525 52.123C366.547 51.5023 367.058 50.553 367.058 49.2752C367.058 48.2163 366.529 47.3766 365.47 46.7559C364.411 46.0987 363.133 45.5876 361.636 45.2225C360.139 44.8209 358.642 44.3645 357.145 43.8533C355.648 43.3422 354.37 42.5024 353.311 41.3341C352.253 40.1658 351.723 38.6688 351.723 36.8433C351.723 34.4701 352.636 32.5168 354.462 30.9833C356.324 29.4499 358.642 28.6832 361.417 28.6832C363.645 28.6832 365.616 29.1943 367.332 30.2166C369.085 31.2024 370.399 32.5898 371.275 34.3788L367.278 36.6242C366.292 34.2875 364.338 33.1192 361.417 33.1192C360.066 33.1192 358.916 33.4478 357.967 34.105C357.017 34.7257 356.543 35.6202 356.543 36.7885Z" fill="#F27B42"/>
<path d="M394.349 34.4507H387.065V49.2922C387.065 50.6431 387.321 51.6107 387.832 52.1949C388.379 52.7425 389.201 53.0346 390.296 53.0711C391.392 53.0711 392.743 53.0346 394.349 52.9616V57.2333C390.187 57.7809 387.138 57.4524 385.203 56.2475C383.268 55.0061 382.3 52.6877 382.3 49.2922V34.4507H376.878V29.8504H382.3V23.6071L387.065 22.1832V29.8504H394.349V34.4507Z" fill="#F27B42"/>
<path d="M430.019 29.3403C433.159 29.3403 435.679 30.3809 437.577 32.462C439.476 34.5066 440.425 37.2449 440.425 40.6769V57.49H432.21V41.3888C432.21 40.0014 431.863 38.9061 431.169 38.1029C430.512 37.2996 429.545 36.898 428.267 36.898C426.916 36.898 425.857 37.3544 425.09 38.2672C424.36 39.1799 423.995 40.4396 423.995 42.046V57.49H415.779V41.3888C415.779 40.0014 415.432 38.9061 414.739 38.1029C414.081 37.2996 413.114 36.898 411.836 36.898C410.485 36.898 409.426 37.3544 408.659 38.2672C407.929 39.1799 407.564 40.4396 407.564 42.046V57.49H399.349V30.107H407.564V32.6263C409.061 30.4356 411.508 29.3403 414.903 29.3403C418.08 29.3403 420.471 30.5452 422.078 32.9549C423.757 30.5452 426.404 29.3403 430.019 29.3403Z" fill="#F27B42"/>
<path d="M453.805 26.2735C452.856 27.2228 451.705 27.6974 450.354 27.6974C449.004 27.6974 447.835 27.2228 446.85 26.2735C445.9 25.2877 445.425 24.1194 445.425 22.7684C445.425 21.4176 445.9 20.2675 446.85 19.3182C447.835 18.3324 449.004 17.8395 450.354 17.8395C451.705 17.8395 452.856 18.3324 453.805 19.3182C454.791 20.2675 455.284 21.4176 455.284 22.7684C455.284 24.1194 454.791 25.2877 453.805 26.2735ZM446.247 57.49V30.1071H454.462V57.49H446.247Z" fill="#F27B42"/>
<path d="M460.284 57.49V17.5109H468.5V57.49H460.284Z" fill="#F27B42"/>
<path d="M482.208 46.3177C483.157 48.8735 485.348 50.1514 488.78 50.1514C491.007 50.1514 492.76 49.4577 494.038 48.0703L500.61 51.8491C497.908 55.6097 493.928 57.49 488.671 57.49C484.07 57.49 480.382 56.1209 477.607 53.3826C474.869 50.6442 473.5 47.194 473.5 43.0318C473.5 38.9061 474.851 35.4741 477.552 32.7358C480.291 29.961 483.796 28.5736 488.068 28.5736C492.048 28.5736 495.352 29.961 497.981 32.7358C500.646 35.4741 501.979 38.9061 501.979 43.0318C501.979 44.2002 501.869 45.2955 501.651 46.3177H482.208ZM482.044 40.184H493.818C493.015 37.2996 491.08 35.8575 488.013 35.8575C484.837 35.8575 482.847 37.2996 482.044 40.184Z" fill="#F27B42"/>
</svg>
