<svg width="267" height="75" viewBox="0 0 267 75" fill="none" xmlns="http://www.w3.org/2000/svg" role="img">
<title id="logoTitile">Logo DispatchTrack</title>
<path fill="white" d="M111.901 49.1535C109.94 49.1535 109.343 48.5484 109.341 46.5686V33.8036H118.709V28.6338L112.387 28.6287C112.019 28.6287 111.672 28.773 111.407 29.0363L109.299 31.1199V22.3525L103.812 27.4185V27.5198C103.812 29.6819 103.812 31.8465 103.812 34.0086C103.812 35.2897 103.81 36.5707 103.805 37.8518C103.793 40.8772 103.783 44.0039 103.854 47.08C103.948 51.0877 107.112 54.2777 111.06 54.341C111.977 54.3562 112.898 54.3612 113.817 54.3612C114.623 54.3612 115.426 54.3587 116.215 54.3536L117.957 54.3486C118.107 54.3486 118.249 54.3182 118.377 54.2929C118.429 54.2827 118.478 54.2726 118.527 54.265L118.714 54.2346V49.156H111.903L111.901 49.1535Z"></path>
<path fill="white" d="M13.8253 22.0513C10.0097 22.0462 6.19659 22.0487 2.38099 22.0513H1.06162C0.872437 22.0513 0.683254 22.0639 0.489157 22.0791L0.00268555 22.107V54.3511H4.46446C5.86 54.3511 7.24816 54.3511 8.63387 54.3511C10.3734 54.3511 12.1055 54.3511 13.8401 54.3486C18.3436 54.341 21.4934 51.0978 21.5008 46.4597C21.5106 41.1684 21.5082 35.2669 21.5008 29.9781C21.4959 25.2438 18.41 22.0589 13.8253 22.0513ZM15.9555 47.0015C15.9555 48.442 15.27 49.1459 13.8647 49.1509C11.7566 49.1585 9.64612 49.156 7.53808 49.1535H5.95582C5.83297 49.1535 5.70767 49.1433 5.56271 49.1332H5.5234V27.2919C5.5234 27.2919 5.53323 27.2919 5.53814 27.2919C5.6831 27.2717 5.81823 27.2514 5.94844 27.2514C8.58473 27.2464 11.221 27.2413 13.8573 27.2514C15.2651 27.2565 15.9506 27.9578 15.953 29.3933C15.9604 35.0593 15.9604 41.338 15.953 47.004L15.9555 47.0015Z"></path>
<path fill="white" d="M69.3738 28.6337L68.4328 28.6261C67.3443 28.616 66.2191 28.6059 65.111 28.654C64.6442 28.6742 64.1135 28.8844 63.7277 29.2008C63.1725 29.654 62.6688 30.1426 62.0841 30.7097C61.9514 30.8389 61.8138 30.973 61.6713 31.1072V28.6641H56.2169V63.4071H61.6934V54.3511H64.0029C65.8161 54.3536 67.5827 54.3561 69.3492 54.3511C73.7741 54.3384 76.9337 51.2041 77.032 46.728C77.1057 43.3912 77.1082 39.8771 77.032 36.2871C76.9411 31.8718 73.7201 28.654 69.3738 28.6337ZM71.4867 47.3027C71.4769 48.3483 70.7546 49.118 69.7718 49.1332C67.8431 49.1635 65.9488 49.1585 63.9464 49.1509C63.2167 49.1509 62.4845 49.1458 61.7425 49.1458V33.8288H67.3886C68.0814 33.8238 68.7743 33.8212 69.4671 33.8314C70.7177 33.8491 71.472 34.558 71.4843 35.7251C71.5285 39.3683 71.5285 43.1532 71.4843 47.3002L71.4867 47.3027Z"></path>
<path fill="white" d="M260.164 41.9787C264.038 39.1204 265.859 34.9582 265.888 28.9023V28.6745H260.417L260.402 28.8871C260.215 31.7682 259.874 34.5253 257.813 36.5811C255.867 38.5229 253.373 39.0292 250.555 39.4065V21.9097H245.118V54.2905H250.577V51.0372C250.584 49.2828 250.587 47.4675 250.565 45.6801C250.557 45.1586 250.646 45.0598 251.162 45.0117C252.356 44.9029 253.466 44.7079 254.461 44.437C255.053 44.275 255.243 44.4244 255.51 44.956C256.953 47.8118 258.464 50.6929 259.921 53.4804L259.992 53.6145C260.235 54.0779 260.476 54.3158 260.714 54.3234C261.714 54.3488 262.707 54.3538 263.726 54.3538C264.129 54.3538 264.537 54.3538 264.952 54.3538H266.601L260.161 41.9838L260.164 41.9787Z"></path>
<path fill="white" d="M92.9578 28.6337C90.4296 28.6211 87.9014 28.6261 85.3732 28.6287H83.1718C82.9999 28.6312 82.8279 28.6489 82.651 28.6666C82.5723 28.6742 82.4913 28.6818 82.4077 28.6894L82.2038 28.7046V33.8288H85.5698C87.7614 33.8288 89.9505 33.8238 92.1421 33.8364C92.6408 33.839 93.1371 33.8947 93.6113 33.9985C93.9897 34.082 94.6457 34.3402 94.7808 35.1301C94.8815 35.7251 94.9184 36.3302 94.9577 36.9682C94.97 37.1707 94.9823 37.3733 94.997 37.5809C94.1862 37.5809 93.3902 37.5809 92.6015 37.5758C90.6679 37.5707 88.8424 37.5657 86.9874 37.5859C83.4151 37.6214 80.5478 39.9911 79.8501 43.4823C79.6191 44.6419 79.5749 45.9634 79.7149 47.6394C79.9926 50.9813 82.4692 53.7206 85.6042 54.1561C86.7344 54.3131 87.8891 54.346 89.0291 54.346C89.4542 54.346 89.8792 54.3409 90.2994 54.3359C90.7515 54.3308 91.2134 54.3257 91.6581 54.3257C92.0463 54.3257 92.5352 54.1257 92.9013 53.8169C93.4639 53.3409 93.9823 52.8421 94.5818 52.2624C94.712 52.1358 94.8447 52.0067 94.9823 51.875V54.3029H100.412L100.437 54.1029C100.444 54.0447 100.451 53.9915 100.459 53.9409C100.476 53.8244 100.491 53.7232 100.491 53.6194C100.491 51.9079 100.496 50.1965 100.501 48.485C100.513 44.4191 100.528 40.2139 100.461 36.0795C100.392 31.7148 97.3065 28.6514 92.9578 28.6312V28.6337ZM94.9159 42.7912V49.1534H91.8079C90.3436 49.1534 88.8817 49.1559 87.4174 49.1534C85.8351 49.1483 85.1546 48.442 85.1447 46.7888L85.1398 46.3001C85.1325 45.7735 85.1276 45.2292 85.157 44.7001C85.2185 43.6089 85.9138 42.8317 86.8474 42.8139C88.0169 42.7886 89.2011 42.781 90.378 42.781C91.1667 42.781 91.9554 42.7836 92.7293 42.7861C93.4541 42.7886 94.1838 42.7912 94.9159 42.7937V42.7912Z"></path>
<path fill="white" d="M213.463 28.6468C210.974 28.6113 208.443 28.6189 205.994 28.6291C204.994 28.6316 203.994 28.6366 202.994 28.6366C202.89 28.6366 202.785 28.6544 202.684 28.6746L202.384 28.7202V33.8318H204.996C207.416 33.8292 209.809 33.8292 212.202 33.8394C212.711 33.8394 213.207 33.89 213.679 33.9837C214.453 34.1356 214.917 34.6444 215.015 35.4546C215.077 35.9534 215.096 36.4673 215.116 37.0116C215.123 37.1964 215.131 37.3863 215.138 37.5838H214.298C213.551 37.5838 212.797 37.5838 212.047 37.5787C210.387 37.5737 208.669 37.5686 206.976 37.5964C203.603 37.6547 200.758 40.0016 200.055 43.308C199.795 44.5359 199.733 45.9512 199.866 47.6348C200.131 50.9767 202.603 53.7211 205.745 54.159C206.878 54.316 208.038 54.3515 209.183 54.3515C209.603 54.3515 210.02 54.3464 210.436 54.3413C210.853 54.3363 211.273 54.3312 211.691 54.3312C211.728 54.3312 211.757 54.3236 211.804 54.3312C212.197 54.3312 212.686 54.1337 213.047 53.8274C213.61 53.3514 214.153 52.8273 214.725 52.2729C214.856 52.1463 214.991 52.0172 215.128 51.8855V54.278H220.617V54.0502C220.617 52.2147 220.625 50.3868 220.632 48.5639C220.649 44.3562 220.666 40.0067 220.588 35.7407C220.516 31.7532 217.453 28.7025 213.46 28.6468H213.463ZM215.079 42.784V49.1538H209.676C208.907 49.1589 208.138 49.1614 207.369 49.1513C206.099 49.1336 205.345 48.3867 205.303 47.1006C205.274 46.2221 205.276 45.4524 205.308 44.7511C205.36 43.5992 206.087 42.8143 207.116 42.7992C208.249 42.7814 209.372 42.7764 210.509 42.7764C211.286 42.7764 212.07 42.7764 212.873 42.7814C213.603 42.7814 214.335 42.7865 215.077 42.7865L215.079 42.784Z"></path>
<path fill="white" d="M47.8805 39.1685C46.3032 38.9406 44.6718 38.9583 43.0994 38.9761C42.4483 38.9837 41.7972 38.9913 41.1437 38.9811C39.527 38.9583 38.7752 38.1305 38.7727 36.3785C38.7703 34.6924 39.554 33.8341 41.1043 33.8316C43.4679 33.8265 45.8315 33.8291 48.195 33.8291H52.2735V28.6896L51.8853 28.6567C51.7551 28.6441 51.6372 28.6339 51.5193 28.6339H49.1999C46.3867 28.6289 43.4826 28.6263 40.6228 28.6466C40.0233 28.6517 39.3648 28.7504 38.7236 28.9327C35.1094 29.9631 32.854 33.5911 33.3577 37.5558C33.8515 41.447 36.7679 44.1028 40.6105 44.1661C41.4311 44.1788 42.2517 44.1762 43.0723 44.1737C44.1337 44.1686 45.232 44.1661 46.3106 44.199C46.7897 44.2142 47.3179 44.394 47.6594 44.6598C48.3572 45.2041 48.5906 46.6801 48.1606 47.8194C47.7921 48.7916 47.2147 49.1536 46.0256 49.1536C43.463 49.1562 40.9004 49.1536 38.3329 49.1536H34.0186V54.3361H34.2397C35.537 54.3361 36.8293 54.3437 38.1192 54.3513C39.3771 54.3589 40.6523 54.3665 41.9323 54.3665C43.6178 54.3665 45.3131 54.3538 46.9887 54.3082C50.5488 54.212 53.6126 51.1132 53.8165 47.4017C54.0622 42.9559 51.733 39.7229 47.883 39.1685H47.8805Z"></path>
<path fill="white" d="M139.192 28.6364L136.399 28.6314C133.984 28.6263 131.568 28.6238 129.153 28.6339C124.854 28.6542 121.689 31.8821 121.628 36.3076C121.581 39.6849 121.581 43.1686 121.628 46.6598C121.689 51.1714 124.812 54.3335 129.222 54.3487C130.431 54.3538 131.64 54.3538 132.848 54.3538C134.057 54.3538 135.283 54.3538 136.499 54.3513H138.752C138.924 54.3487 139.096 54.3361 139.276 54.3259L139.745 54.2981V49.1536H135.775C133.662 49.1536 131.551 49.1536 129.441 49.1536C127.795 49.1536 127.151 48.5055 127.146 46.8523C127.136 43.0901 127.136 39.5913 127.146 36.1582C127.151 34.4873 127.79 33.8341 129.423 33.8316C131.593 33.829 133.762 33.829 135.932 33.8316H139.762V28.7099L139.411 28.6618C139.318 28.6466 139.254 28.639 139.192 28.639V28.6364Z"></path>
<path fill="white" d="M241.113 28.6342H239.206C236.666 28.6291 234.123 28.6266 231.582 28.6342C227.167 28.6494 224.04 31.809 223.978 36.3155C223.932 39.751 223.932 43.2322 223.978 46.6677C224.04 51.1767 227.167 54.3338 231.58 54.349C232.811 54.3541 234.039 54.3541 235.27 54.3541C236.622 54.3541 237.973 54.3541 239.324 54.3515H241.11C241.282 54.3515 241.454 54.3363 241.634 54.3237L242.096 54.2958V49.1539H238.157C236.005 49.1539 233.853 49.1564 231.7 49.1539C230.165 49.1513 229.506 48.4855 229.501 46.9335C229.489 43.5891 229.489 40.0624 229.501 36.1509C229.506 34.485 230.148 33.8369 231.786 33.8318C233.956 33.8293 236.125 33.8293 238.295 33.8318H242.113V28.6899L241.641 28.6595C241.457 28.6468 241.285 28.6342 241.113 28.6342Z"></path>
<path fill="white" d="M183.893 21.9453H163.951V27.0873H171.179V54.3034H176.697V27.0797H183.893V21.9453Z"></path>
<path fill="white" d="M197.495 28.6337C195.51 28.6312 193.525 28.6312 191.539 28.6337C186.766 28.6388 183.68 31.8262 183.672 36.7581C183.667 41.2848 183.67 45.8115 183.672 50.3383V53.1485C183.672 53.3612 183.687 53.5738 183.699 53.7941L183.726 54.3232H189.2V48.0293C189.2 44.1836 189.2 40.3405 189.2 36.4948C189.2 34.3808 189.724 33.8314 191.748 33.8314H193.483C194.834 33.8314 196.183 33.8314 197.532 33.8314C197.721 33.8314 197.91 33.8187 198.107 33.8035L198.581 33.7732V28.6869L198.07 28.6591C197.871 28.6464 197.682 28.6363 197.495 28.6363V28.6337Z"></path>
<path fill="white" d="M30.3627 30.6772H24.9599V54.3211H30.3627V30.6772Z"></path>
<path fill="#F27B42" d="M30.3627 22.0693H24.9599V27.424H30.3627V22.0693Z"></path>
<path fill="white" d="M164.341 38.08C164.265 34.171 161.7 31.2368 157.953 30.776C156.484 30.5962 154.973 30.6291 153.511 30.6646C153 30.6772 152.487 30.6874 151.976 30.6924C151.664 30.6924 151.359 30.938 151.125 31.1507C150.573 31.6596 150.03 32.1811 149.423 32.7659L149.162 33.014V35.8698H156.369C158.219 35.8698 158.843 36.523 158.843 38.4547C158.843 42.3435 158.843 44.2043 158.843 48.0905V54.3034H164.226L164.277 54.1515C164.29 54.116 164.302 54.0856 164.312 54.0603C164.336 53.9996 164.363 53.9363 164.363 53.8553C164.363 52.1236 164.373 50.3893 164.381 48.6551C164.398 44.5233 164.417 42.2776 164.336 38.075L164.341 38.08Z"></path>
<path fill="white" d="M149.165 22.3525H143.566V54.3612H149.165V22.3525Z"></path>
</svg>