<svg width="120" height="52" viewBox="0 0 120 52" fill="none" xmlns="http://www.w3.org/2000/svg">
<path d="M50.2926 22.2375C49.4113 22.2375 49.143 21.9656 49.1421 21.0758V15.3387H53.3524V13.0152L50.511 13.0129C50.3456 13.0129 50.1897 13.0778 50.0706 13.1961L49.1232 14.1325V10.1921L46.6571 12.469V12.5145C46.6571 13.4863 46.6571 14.4591 46.6571 15.4308C46.6571 16.0066 46.6562 16.5823 46.654 17.1581C46.6486 18.5178 46.6441 19.9231 46.676 21.3056C46.7182 23.1068 48.1403 24.5406 49.9146 24.569C50.3268 24.5758 50.7407 24.5781 51.1537 24.5781C51.516 24.5781 51.8769 24.577 52.2315 24.5747L53.0144 24.5724C53.0818 24.5724 53.1456 24.5588 53.2032 24.5474C53.2265 24.5428 53.2486 24.5383 53.2706 24.5348L53.3546 24.5212V22.2387H50.2935L50.2926 22.2375Z" fill="#0052CC"/>
<path d="M6.21363 10.0567C4.49875 10.0544 2.785 10.0556 1.07012 10.0567H0.477146C0.39212 10.0567 0.307094 10.0624 0.219859 10.0692L0.0012207 10.0818V24.5735H2.00651C2.63372 24.5735 3.25761 24.5735 3.8804 24.5735C4.66221 24.5735 5.44069 24.5735 6.22028 24.5724C8.24433 24.5689 9.65997 23.1113 9.66329 21.0268C9.6677 18.6487 9.66662 15.9963 9.66329 13.6193C9.66109 11.4916 8.27417 10.0602 6.21363 10.0567ZM7.17102 21.2703C7.17102 21.9177 6.86293 22.2341 6.23134 22.2363C5.28388 22.2397 4.33535 22.2386 3.38791 22.2375H2.67679C2.62157 22.2375 2.56526 22.2329 2.50011 22.2284H2.48244V12.4121C2.48244 12.4121 2.48686 12.4121 2.48906 12.4121C2.55422 12.403 2.61495 12.3939 2.67347 12.3939C3.85832 12.3916 5.04316 12.3893 6.22801 12.3939C6.86073 12.3961 7.16882 12.7113 7.1699 13.3565C7.17322 15.903 7.17322 18.7249 7.1699 21.2714L7.17102 21.2703Z" fill="#0052CC"/>
<path d="M31.1793 13.0152L30.7564 13.0117C30.2672 13.0072 29.7615 13.0027 29.2635 13.0243C29.0537 13.0334 28.8152 13.1278 28.6418 13.27C28.3922 13.4737 28.1658 13.6933 27.9031 13.9482C27.8434 14.0063 27.7816 14.0665 27.7175 14.1268V13.0288H25.2661V28.6437H27.7275V24.5736H28.7654C29.5804 24.5747 30.3743 24.5758 31.1683 24.5736C33.157 24.5678 34.577 23.1592 34.6212 21.1474C34.6544 19.6478 34.6555 18.0684 34.6212 16.4549C34.5804 14.4705 33.1327 13.0243 31.1793 13.0152ZM32.129 21.4057C32.1246 21.8757 31.7999 22.2216 31.3582 22.2284C30.4914 22.242 29.64 22.2398 28.7401 22.2364C28.4121 22.2364 28.083 22.2341 27.7495 22.2341V15.35H30.2871C30.5985 15.3478 30.9099 15.3466 31.2213 15.3512C31.7833 15.3592 32.1223 15.6778 32.1279 16.2023C32.1477 17.8397 32.1477 19.5408 32.1279 21.4046L32.129 21.4057Z" fill="#0052CC"/>
<path d="M116.928 19.0129C118.669 17.7283 119.487 15.8576 119.5 13.1359V13.0335H117.041L117.034 13.129C116.95 14.4239 116.797 15.6631 115.871 16.587C114.996 17.4597 113.875 17.6873 112.609 17.8569V9.99313H110.165V24.5463H112.619V23.0841C112.622 22.2957 112.623 21.4798 112.613 20.6765C112.61 20.4421 112.65 20.3977 112.882 20.3761C113.418 20.3272 113.917 20.2395 114.364 20.1178C114.63 20.045 114.716 20.1121 114.836 20.351C115.484 21.6345 116.163 22.9294 116.818 24.1822L116.85 24.2425C116.959 24.4508 117.068 24.5577 117.175 24.5611C117.624 24.5725 118.07 24.5748 118.528 24.5748C118.71 24.5748 118.893 24.5748 119.079 24.5748H119.821L116.926 19.0152L116.928 19.0129Z" fill="#0052CC"/>
<path d="M41.7789 13.0151C40.6427 13.0095 39.5064 13.0117 38.3701 13.0129H37.3807C37.3035 13.014 37.2262 13.022 37.1467 13.0299C37.1113 13.0333 37.0749 13.0367 37.0373 13.0402L36.9457 13.047V15.35H38.4585C39.4435 15.35 40.4273 15.3478 41.4123 15.3534C41.6365 15.3546 41.8595 15.3796 42.0726 15.4263C42.2427 15.4638 42.5375 15.5799 42.5983 15.9349C42.6435 16.2023 42.6601 16.4742 42.6778 16.761C42.6833 16.852 42.6888 16.943 42.6954 17.0363C42.331 17.0363 41.9733 17.0363 41.6188 17.0341C40.7498 17.0318 39.9293 17.0295 39.0956 17.0386C37.4901 17.0545 36.2014 18.1196 35.8878 19.6887C35.784 20.2098 35.7641 20.8038 35.8271 21.557C35.9519 23.059 37.065 24.2901 38.4739 24.4859C38.9819 24.5564 39.5009 24.5712 40.0132 24.5712C40.2043 24.5712 40.3953 24.5689 40.5841 24.5667C40.7873 24.5644 40.9949 24.5621 41.1948 24.5621C41.3693 24.5621 41.589 24.4722 41.7535 24.3334C42.0064 24.1195 42.2394 23.8953 42.5088 23.6348C42.5673 23.5779 42.627 23.5199 42.6888 23.4607V24.5519H45.1291L45.1404 24.462C45.1435 24.4358 45.1467 24.4119 45.1503 24.3892C45.1579 24.3368 45.1646 24.2913 45.1646 24.2447C45.1646 23.4754 45.1669 22.7063 45.1691 21.9371C45.1745 20.1097 45.1813 18.2197 45.1512 16.3616C45.1201 14.3999 43.7334 13.0231 41.7789 13.014V13.0151ZM42.659 19.3781V22.2375H41.2621C40.604 22.2375 39.947 22.2386 39.2889 22.2375C38.5777 22.2352 38.2719 21.9177 38.2674 21.1747L38.2652 20.9551C38.2619 20.7184 38.2597 20.4738 38.273 20.236C38.3006 19.7456 38.6131 19.3963 39.0327 19.3883C39.5583 19.3769 40.0905 19.3735 40.6195 19.3735C40.9739 19.3735 41.3284 19.3746 41.6762 19.3758C42.002 19.3769 42.3299 19.3781 42.659 19.3792V19.3781Z" fill="#0052CC"/>
<path d="M95.9384 13.0211C94.8198 13.0051 93.6822 13.0085 92.5816 13.0131C92.1321 13.0142 91.6827 13.0165 91.2332 13.0165C91.1865 13.0165 91.1393 13.0245 91.0939 13.0335L90.9591 13.054V15.3514H92.133C93.2207 15.3502 94.2962 15.3502 95.3717 15.3548C95.6004 15.3548 95.8234 15.3775 96.0355 15.4197C96.3834 15.4879 96.5919 15.7166 96.636 16.0807C96.6638 16.3049 96.6724 16.5359 96.6813 16.7805C96.6845 16.8636 96.6881 16.9489 96.6912 17.0377H96.3137C95.978 17.0377 95.6391 17.0377 95.302 17.0354C94.5559 17.0331 93.7838 17.0308 93.0229 17.0433C91.507 17.0695 90.2283 18.1243 89.9123 19.6103C89.7955 20.1622 89.7676 20.7983 89.8274 21.555C89.9465 23.057 91.0575 24.2904 92.4697 24.4872C92.9789 24.5578 93.5002 24.5737 94.0148 24.5737C94.2036 24.5737 94.391 24.5714 94.578 24.5691C94.7654 24.5669 94.9541 24.5646 95.142 24.5646C95.1586 24.5646 95.1717 24.5612 95.1928 24.5646C95.3694 24.5646 95.5892 24.4758 95.7515 24.3382C96.0045 24.1242 96.2485 23.8887 96.5056 23.6395C96.5645 23.5826 96.6252 23.5246 96.6867 23.4654V24.5407H99.1537V24.4383C99.1537 23.6134 99.1573 22.7918 99.1605 21.9725C99.1681 20.0815 99.1757 18.1266 99.1407 16.2093C99.1083 14.4172 97.7317 13.0461 95.9371 13.0211H95.9384ZM96.6647 19.3748V22.2377H94.2364C93.8908 22.24 93.5452 22.2411 93.1995 22.2365C92.6288 22.2286 92.2899 21.8929 92.271 21.3149C92.258 20.9201 92.2589 20.5741 92.2732 20.2589C92.2966 19.7412 92.6234 19.3885 93.0858 19.3817C93.595 19.3737 94.0998 19.3714 94.6108 19.3714C94.96 19.3714 95.3124 19.3714 95.6733 19.3737C96.0013 19.3737 96.3303 19.376 96.6638 19.376L96.6647 19.3748Z" fill="#0052CC"/>
<path d="M21.5193 17.7499C20.8104 17.6475 20.0772 17.6554 19.3705 17.6634C19.0778 17.6669 18.7852 17.6703 18.4915 17.6657C17.7649 17.6554 17.427 17.2834 17.4259 16.496C17.4248 15.7382 17.777 15.3524 18.4738 15.3513C19.5361 15.349 20.5984 15.3502 21.6606 15.3502H23.4937V13.0403L23.3192 13.0255C23.2607 13.0198 23.2077 13.0153 23.1547 13.0153H22.1123C20.8479 13.013 19.5427 13.0118 18.2574 13.021C17.988 13.0233 17.692 13.0676 17.4038 13.1496C15.7795 13.6127 14.7658 15.2432 14.9922 17.0251C15.2141 18.774 16.5249 19.9676 18.2519 19.996C18.6207 20.0017 18.9895 20.0006 19.3583 19.9994C19.8353 19.9972 20.3289 19.996 20.8137 20.0108C21.029 20.0177 21.2664 20.0985 21.4199 20.2179C21.7335 20.4626 21.8384 21.1259 21.6452 21.638C21.4795 22.0749 21.22 22.2376 20.6856 22.2376C19.5339 22.2388 18.3822 22.2376 17.2282 22.2376H15.2892V24.5668H15.3886C15.9716 24.5668 16.5525 24.5702 17.1322 24.5737C17.6975 24.5771 18.2707 24.5805 18.8459 24.5805C19.6035 24.5805 20.3654 24.5748 21.1185 24.5543C22.7185 24.5111 24.0955 23.1183 24.1871 21.4502C24.2976 19.4521 23.2507 17.9991 21.5204 17.7499H21.5193Z" fill="#0052CC"/>
<path d="M62.558 13.0163L61.3027 13.0141C60.2173 13.0118 59.1314 13.0107 58.0461 13.0152C56.1139 13.0243 54.6915 14.4751 54.664 16.4641C54.6429 17.9819 54.6429 19.5477 54.664 21.1167C54.6915 23.1444 56.095 24.5656 58.0771 24.5724C58.6204 24.5747 59.1638 24.5747 59.7067 24.5747C60.2501 24.5747 60.8011 24.5747 61.3476 24.5736H62.3602C62.4375 24.5724 62.5148 24.5667 62.5957 24.5622L62.8065 24.5497V22.2375H61.0222C60.0726 22.2375 59.1238 22.2375 58.1755 22.2375C57.4357 22.2375 57.1463 21.9463 57.144 21.2032C57.1395 19.5124 57.1395 17.9399 57.144 16.3969C57.1463 15.6459 57.4335 15.3524 58.1674 15.3513C59.1427 15.3501 60.1175 15.3501 61.0928 15.3513H62.8141V13.0494L62.6564 13.0277C62.6146 13.0209 62.5858 13.0175 62.558 13.0175V13.0163Z" fill="#0052CC"/>
<path d="M108.365 13.0154H107.508C106.366 13.0131 105.224 13.012 104.081 13.0154C102.097 13.0222 100.692 14.4423 100.664 16.4677C100.643 18.0117 100.643 19.5763 100.664 21.1203C100.692 23.1468 102.097 24.5657 104.081 24.5726C104.634 24.5749 105.186 24.5749 105.739 24.5749C106.347 24.5749 106.954 24.5749 107.561 24.5737H108.364C108.441 24.5737 108.518 24.5669 108.599 24.5612L108.807 24.5487V22.2377H107.037C106.069 22.2377 105.102 22.2388 104.135 22.2377C103.445 22.2365 103.148 21.9373 103.146 21.2398C103.141 19.7367 103.141 18.1516 103.146 16.3937C103.148 15.645 103.437 15.3537 104.173 15.3514C105.148 15.3503 106.123 15.3503 107.099 15.3514H108.815V13.0404L108.602 13.0268C108.52 13.0211 108.442 13.0154 108.365 13.0154Z" fill="#0052CC"/>
<path d="M82.6487 10.0092H73.686V12.3202H76.9346V24.5521H79.4146V12.3168H82.6487V10.0092Z" fill="#0052CC"/>
<path d="M88.7619 13.0152C87.8698 13.014 86.9776 13.014 86.0851 13.0152C83.9399 13.0175 82.5529 14.45 82.5493 16.6666C82.5471 18.7011 82.5484 20.7355 82.5493 22.7701V24.0331C82.5493 24.1287 82.5561 24.2242 82.5615 24.3232L82.5736 24.561H85.0338V21.7323C85.0338 20.0039 85.0338 18.2767 85.0338 16.5483C85.0338 15.5981 85.2693 15.3512 86.179 15.3512H86.9588C87.566 15.3512 88.1723 15.3512 88.7785 15.3512C88.8635 15.3512 88.9484 15.3455 89.037 15.3387L89.25 15.3251V13.0391L89.0203 13.0266C88.9309 13.0209 88.846 13.0163 88.7619 13.0163V13.0152Z" fill="#0052CC"/>
<path d="M13.6462 13.9336H11.218V24.56H13.6462V13.9336Z" fill="#0052CC"/>
<path d="M13.6462 10.0648H11.218V12.4715H13.6462V10.0648Z" fill="#F27B42"/>
<path d="M73.8611 17.2607C73.8269 15.5038 72.6741 14.1851 70.9901 13.978C70.3299 13.8972 69.6507 13.912 68.9937 13.9279C68.764 13.9336 68.5334 13.9382 68.3038 13.9404C68.1636 13.9404 68.0265 14.0508 67.9213 14.1464C67.6732 14.3751 67.4292 14.6095 67.1564 14.8723L67.0391 14.9838V16.2673H70.2782C71.1096 16.2673 71.3901 16.5609 71.3901 17.4291C71.3901 19.1769 71.3901 20.0132 71.3901 21.7598V24.5521H73.8094L73.8323 24.4838C73.8382 24.4679 73.8436 24.4542 73.8481 24.4428C73.8588 24.4155 73.871 24.3871 73.871 24.3507C73.871 23.5724 73.8755 22.7929 73.8791 22.0135C73.8867 20.1565 73.8952 19.1472 73.8588 17.2584L73.8611 17.2607Z" fill="#0052CC"/>
<path d="M67.0406 10.1921H64.5242V24.5781H67.0406V10.1921Z" fill="#0052CC"/>
<path d="M0 50.8539V33.8539H2.02613V50.8539H0Z" fill="#F27B42"/>
<path d="M11.9035 41.1011H13.5575V50.6068H11.9035V48.9718C11.0796 50.2266 9.88181 50.8539 8.31013 50.8539C6.97926 50.8539 5.84485 50.3723 4.90691 49.4091C3.96897 48.4332 3.5 47.2481 3.5 45.8539C3.5 44.4598 3.96897 43.2811 4.90691 42.3178C5.84485 41.3419 6.97926 40.8539 8.31013 40.8539C9.88181 40.8539 11.0796 41.4813 11.9035 42.7361V41.1011ZM8.51925 49.257C9.48254 49.257 10.2874 48.9338 10.9338 48.2874C11.5802 47.6283 11.9035 46.8172 11.9035 45.8539C11.9035 44.8907 11.5802 44.0859 10.9338 43.4395C10.2874 42.7804 9.48254 42.4509 8.51925 42.4509C7.56863 42.4509 6.77011 42.7804 6.1237 43.4395C5.47728 44.0859 5.15407 44.8907 5.15407 45.8539C5.15407 46.8172 5.47728 47.6283 6.1237 48.2874C6.77011 48.9338 7.56863 49.257 8.51925 49.257Z" fill="#F27B42"/>
<path d="M16.4223 43.6676C16.4223 44.0352 16.5976 44.333 16.9482 44.5612C17.2988 44.7766 17.7219 44.9541 18.2177 45.0935C18.7133 45.2202 19.2089 45.3723 19.7047 45.5497C20.2003 45.7145 20.6234 46.006 20.9741 46.4243C21.3247 46.8298 21.5 47.3558 21.5 48.0022C21.5 48.8641 21.1796 49.5548 20.5389 50.0745C19.9101 50.5941 19.1001 50.8539 18.1087 50.8539C17.2262 50.8539 16.4706 50.6511 15.842 50.2456C15.2133 49.84 14.766 49.3013 14.5 48.6296L15.8601 47.8121C16.0052 48.2684 16.2772 48.6296 16.6762 48.8958C17.0751 49.1619 17.5526 49.295 18.1087 49.295C18.6287 49.295 19.0578 49.1936 19.3964 48.9908C19.7349 48.7753 19.9041 48.4458 19.9041 48.0022C19.9041 47.6347 19.7289 47.3432 19.3782 47.1277C19.0277 46.8996 18.6045 46.7221 18.1087 46.5954C17.6131 46.456 17.1174 46.2975 16.6218 46.1201C16.1261 45.9426 15.7029 45.6511 15.3523 45.2456C15.0017 44.84 14.8264 44.3203 14.8264 43.6866C14.8264 42.8628 15.1287 42.1847 15.7332 41.6524C16.3497 41.1201 17.1174 40.8539 18.0363 40.8539C18.7738 40.8539 19.4266 41.0314 19.9949 41.3862C20.5752 41.7285 21.0103 42.2101 21.3004 42.8311L19.9767 43.6106C19.6502 42.7994 19.0035 42.3938 18.0363 42.3938C17.5889 42.3938 17.2081 42.5079 16.8938 42.7361C16.5794 42.9515 16.4223 43.262 16.4223 43.6676Z" fill="#F27B42"/>
<path d="M28.438 43.0234H25.9622V48.0677C25.9622 48.5268 26.0492 48.8557 26.2229 49.0542C26.409 49.2404 26.6882 49.3396 27.0606 49.352C27.4328 49.352 27.892 49.3396 28.438 49.3148V50.7667C27.0233 50.9528 25.987 50.8411 25.3294 50.4316C24.6717 50.0097 24.3428 49.2217 24.3428 48.0677V43.0234H22.5V41.4598H24.3428V39.3379L25.9622 38.8539V41.4598H28.438V43.0234Z" fill="#F27B42"/>
<path d="M40.3953 40.8539C41.5109 40.8539 42.4059 41.2236 43.0802 41.9629C43.7548 42.6892 44.0921 43.662 44.0921 44.8812V50.8539H41.1736V45.1341C41.1736 44.6412 41.0504 44.2521 40.804 43.9668C40.5704 43.6814 40.2268 43.5388 39.7728 43.5388C39.2929 43.5388 38.9166 43.7009 38.6443 44.0251C38.3849 44.3494 38.2552 44.7969 38.2552 45.3675V50.8539H35.3367V45.1341C35.3367 44.6412 35.2135 44.2521 34.9671 43.9668C34.7335 43.6814 34.3899 43.5388 33.936 43.5388C33.456 43.5388 33.0799 43.7009 32.8074 44.0251C32.548 44.3494 32.4183 44.7969 32.4183 45.3675V50.8539H29.5V41.1263H32.4183V42.0212C32.9501 41.243 33.8193 40.8539 35.0254 40.8539C36.1539 40.8539 37.0035 41.282 37.5742 42.138C38.1708 41.282 39.1113 40.8539 40.3953 40.8539Z" fill="#F27B42"/>
<path d="M47.4587 39.8318C47.1237 40.167 46.7174 40.3346 46.2404 40.3346C45.7635 40.3346 45.3508 40.167 45.0029 39.8318C44.6676 39.4838 44.5 39.0712 44.5 38.5943C44.5 38.1173 44.6676 37.7112 45.0029 37.376C45.3508 37.028 45.7635 36.8539 46.2404 36.8539C46.7174 36.8539 47.1237 37.028 47.4587 37.376C47.8069 37.7112 47.9809 38.1173 47.9809 38.5943C47.9809 39.0712 47.8069 39.4838 47.4587 39.8318ZM44.7901 50.8539V41.1854H47.6909V50.8539H44.7901Z" fill="#F27B42"/>
<path d="M48.5 50.8539V35.8539H51.5825V50.8539H48.5Z" fill="#F27B42"/>
<path d="M55.5577 47.0844C55.891 47.9818 56.6603 48.4305 57.8653 48.4305C58.6474 48.4305 59.2628 48.1869 59.7115 47.6998L62.0192 49.0266C61.0706 50.3471 59.673 51.0073 57.827 51.0073C56.2116 51.0073 54.9168 50.5266 53.9423 49.5651C52.9808 48.6036 52.5 47.3921 52.5 45.9306C52.5 44.482 52.9744 43.2769 53.923 42.3154C54.8847 41.3411 56.1153 40.8539 57.6153 40.8539C59.0129 40.8539 60.1731 41.3411 61.0962 42.3154C62.032 43.2769 62.5 44.482 62.5 45.9306C62.5 46.3409 62.4615 46.7255 62.3847 47.0844H55.5577ZM55.5001 44.9307H59.6345C59.3525 43.9179 58.6731 43.4115 57.5961 43.4115C56.4808 43.4115 55.7821 43.9179 55.5001 44.9307Z" fill="#F27B42"/>
</svg>
