<svg width="104" height="91" viewBox="0 0 104 91" fill="none" xmlns="http://www.w3.org/2000/svg">
<path fill-rule="evenodd" clip-rule="evenodd" d="M56.6541 82.1124H7.51029C3.64226 82.1124 0.494751 78.8132 0.494751 74.7614V51.2324C0.494751 47.2389 3.56934 43.8814 7.51029 43.8814C11.3783 43.8814 14.5258 47.1806 14.5258 51.2324V59.3914C14.5258 60.3657 13.7382 61.1563 12.761 61.1563C11.7867 61.1563 10.9962 60.3687 10.9962 59.3914V51.2324C10.9962 49.1234 9.42972 47.4081 7.50446 47.4081C5.6317 47.4081 4.01273 49.0621 4.01273 51.2295V74.7585C4.01273 76.8676 5.5792 78.5799 7.50446 78.5799H56.6483C58.5735 78.5799 60.14 76.8647 60.14 74.7585C60.1137 49.9897 60.2042 51.1653 60.0641 50.4273C59.5011 47.5336 56.2019 46.3784 54.2242 48.4845C53.7224 49.0184 53.3841 49.6864 53.2411 50.4273C53.1069 51.1332 53.1915 50.8328 53.1653 59.3885C53.1653 60.3628 52.3777 61.1533 51.4005 61.1533C50.4262 61.1533 49.6356 60.3657 49.6356 59.3885V51.2295C49.6356 45.022 56.5753 41.5915 61.1522 45.5879C62.7128 46.9531 63.6696 49.0096 63.6696 51.2295V74.7585C63.6696 78.8133 60.525 82.1124 56.6541 82.1124Z" fill="#0052CC"/>
<path fill-rule="evenodd" clip-rule="evenodd" d="M11.9414 90.5427H8.73841C7.16903 90.5427 5.89136 89.3088 5.89136 87.7919V80.3476C5.89136 79.3733 6.67897 78.5828 7.65618 78.5828C8.63048 78.5828 9.42101 79.3704 9.42101 80.3476V87.016H11.6526L18.0584 79.2274C18.6798 78.4748 19.7883 78.3698 20.5409 78.9853C21.2935 79.6067 21.4014 80.7151 20.783 81.4677L14.17 89.5072C13.6274 90.1635 12.8165 90.5427 11.9414 90.5427Z" fill="#0052CC"/>
<path fill-rule="evenodd" clip-rule="evenodd" d="M55.426 90.5428H52.223C51.3508 90.5428 50.537 90.1636 49.9973 89.5043L43.3843 81.4678C42.763 80.7152 42.8738 79.6038 43.6265 78.9854C44.3761 78.364 45.4905 78.4749 46.1089 79.2275L52.5177 87.0161H54.7492V80.3476C54.7492 79.3733 55.5368 78.5828 56.514 78.5828C57.4883 78.5828 58.2789 79.3704 58.2789 80.3476V87.792C58.273 89.3089 56.9954 90.5428 55.426 90.5428Z" fill="#0052CC"/>
<path fill-rule="evenodd" clip-rule="evenodd" d="M51.4034 71.8443H12.764C11.7897 71.8443 10.9991 71.0567 10.9991 70.0795V45.3807C10.9991 40.0367 15.3485 35.6873 20.6926 35.6873C44.7379 35.7019 43.6207 35.6523 44.4229 35.734C49.3585 36.2182 53.1595 40.378 53.1595 45.3836V70.0824C53.1624 71.0509 52.3748 71.8443 51.4034 71.8443ZM49.6386 68.3147V45.3778C49.6386 42.1865 47.2495 39.5495 44.0816 39.2403C43.5594 39.1878 44.805 39.2199 20.6955 39.2111C17.2942 39.2111 14.5288 41.9765 14.5288 45.3778V68.3147H49.6386Z" fill="#0052CC"/>
<path fill-rule="evenodd" clip-rule="evenodd" d="M51.4034 71.8444C50.4291 71.8444 49.6386 71.0568 49.6386 70.0796V65.1731C49.6386 62.9211 47.8067 61.0892 45.5547 61.0892H18.6127C16.3607 61.0892 14.5288 62.9211 14.5288 65.1731V70.0796C14.5288 71.0539 13.7412 71.8444 12.764 71.8444C11.7897 71.8444 10.9991 71.0568 10.9991 70.0796V65.1731C10.9991 60.9754 14.415 57.5624 18.6098 57.5624H45.5518C49.7494 57.5624 53.1653 60.9783 53.1653 65.1731V70.0796C53.1624 71.0509 52.3748 71.8444 51.4034 71.8444Z" fill="#0052CC"/>
<path fill-rule="evenodd" clip-rule="evenodd" d="M101.454 77.5793H61.9107C60.9364 77.5793 60.1459 76.7917 60.1459 75.8145C60.1459 74.8402 60.9335 74.0497 61.9107 74.0497H99.6954V4.21806H46.0127V37.4872C46.0127 38.4615 45.2251 39.252 44.2479 39.252C43.2736 39.252 42.483 38.4644 42.483 37.4872V2.45907C42.483 1.48477 43.2706 0.694244 44.2479 0.694244H101.452C102.426 0.694244 103.216 1.48185 103.216 2.45907V75.8203C103.219 76.7888 102.429 77.5793 101.454 77.5793Z" fill="#0052CC"/>
<path fill-rule="evenodd" clip-rule="evenodd" d="M98.1289 86.5143H91.8222C91.1163 86.5143 90.4804 86.0942 90.2003 85.4466L86.3644 76.5117C85.9793 75.6191 86.3936 74.5777 87.2891 74.1955C88.1817 73.8105 89.2231 74.2247 89.6052 75.1202L92.9832 82.9876H96.3641V75.8174C96.3641 74.8431 97.1517 74.0526 98.1289 74.0526C99.1032 74.0526 99.8937 74.8402 99.8937 75.8174V84.7524C99.8937 85.7238 99.1061 86.5143 98.1289 86.5143Z" fill="#0052CC"/>
<path fill-rule="evenodd" clip-rule="evenodd" d="M101.454 56.8419H61.9107C60.9364 56.8419 60.1459 56.0543 60.1459 55.0771C60.1459 54.1028 60.9335 53.3123 61.9107 53.3123H101.454C102.429 53.3123 103.219 54.0999 103.219 55.0771C103.219 56.0514 102.429 56.8419 101.454 56.8419Z" fill="#0052CC"/>
<path fill-rule="evenodd" clip-rule="evenodd" d="M72.8526 77.5793C71.8783 77.5793 71.0878 76.7917 71.0878 75.8145V2.45614C71.0878 1.48184 71.8754 0.691315 72.8526 0.691315C73.8269 0.691315 74.6174 1.47892 74.6174 2.45614V75.8174C74.6174 76.7888 73.8298 77.5793 72.8526 77.5793Z" fill="#0052CC"/>
<path fill-rule="evenodd" clip-rule="evenodd" d="M67.561 69.5399C66.5867 69.5399 65.7961 68.7523 65.7961 67.775V63.1106C65.7961 62.1363 66.5838 61.3458 67.561 61.3458C68.5353 61.3458 69.3258 62.1334 69.3258 63.1106V67.775C69.3258 68.7523 68.5323 69.5399 67.561 69.5399Z" fill="#0052CC"/>
<path fill-rule="evenodd" clip-rule="evenodd" d="M78.147 69.5399C77.1727 69.5399 76.3822 68.7523 76.3822 67.775V63.1106C76.3822 62.1363 77.1698 61.3458 78.147 61.3458C79.1213 61.3458 79.9119 62.1334 79.9119 63.1106V67.775C79.9089 68.7523 79.1213 69.5399 78.147 69.5399Z" fill="#0052CC"/>
<path fill-rule="evenodd" clip-rule="evenodd" d="M66.3942 39.9171C65.4199 39.9171 64.6294 39.1295 64.6294 38.1522V19.3751C64.6294 18.4008 65.417 17.6103 66.3942 17.6103C67.3685 17.6103 68.159 18.3979 68.159 19.3751V38.1522C68.1532 39.1295 67.3656 39.9171 66.3942 39.9171Z" fill="#F27B42"/>
<path fill-rule="evenodd" clip-rule="evenodd" d="M79.3139 39.9171C78.3396 39.9171 77.5491 39.1295 77.5491 38.1522V19.3751C77.5491 18.4008 78.3367 17.6103 79.3139 17.6103C80.2882 17.6103 81.0787 18.3979 81.0787 19.3751V38.1522C81.0787 39.1295 80.2882 39.9171 79.3139 39.9171Z" fill="#F27B42"/>
</svg>
