<svg width="106" height="106" viewBox="0 0 106 106" fill="none" xmlns="http://www.w3.org/2000/svg">
<path d="M53.8755 105.24H6.10217C3.94177 104.703 2.14211 103.641 1.04788 101.629C0.683135 100.955 0.446649 100.21 0.154053 99.5005C0.154053 92.0533 0.154053 84.6021 0.154053 77.155C0.33442 76.3613 0.49475 75.5637 0.695158 74.7741C2.63912 67.0945 9.34478 61.7435 17.289 61.5431C18.5395 61.5111 19.7941 61.5391 21.1408 61.5391C21.1408 60.5371 21.1007 59.6874 21.1529 58.8416C21.1969 58.1883 20.9204 57.8997 20.3552 57.6231C13.385 54.2322 9.13236 48.713 7.57719 41.1255C7.46496 40.5764 7.27657 40.3519 6.72345 40.1916C3.32051 39.2136 1.17614 36.9931 0.346449 33.53C0.310376 33.3737 0.222196 33.2254 0.158065 33.0731C0.158065 32.1833 0.158065 31.2975 0.158065 30.4077C0.75929 29.089 1.21221 27.6701 1.99781 26.4717C3.17621 24.664 5.03199 23.69 7.31665 23.1208C7.31665 21.1288 7.16033 19.1367 7.34471 17.1767C8.14233 8.71147 15.3731 1.34045 23.8343 0.502738C27.0849 0.178077 30.3877 0.230183 33.6583 0.30233C40.0033 0.438608 45.1017 3.12809 48.9094 8.19441C49.3744 8.81167 49.8113 9.06018 50.5848 9.05617C57.0099 9.02411 63.431 9.03212 69.8561 9.04414C72.241 9.04815 73.5877 10.4109 73.6278 12.7918C73.6358 13.2527 73.6278 13.7177 73.6278 14.2508C74.197 14.2508 74.6058 14.2508 75.0106 14.2508C81.6401 14.2508 88.2696 14.2508 94.8992 14.2508C98.0135 14.2508 99.8813 15.7298 100.631 18.7439C101.629 22.7481 102.667 26.7442 103.625 30.7564C104.194 33.1372 104.972 35.5341 105.068 37.9511C105.288 43.306 105.14 48.6769 105.136 54.0398C105.136 57.567 102.984 59.7274 99.4725 59.7395C98.4263 59.7395 97.3762 59.7395 96.2499 59.7395C96.5826 62.2967 96.1777 64.5653 94.6065 66.7337C95.1517 66.7337 95.4763 66.7337 95.805 66.7337C98.1979 66.7337 100.591 66.7257 102.98 66.7377C104.334 66.7457 105.156 67.4472 105.128 68.5374C105.104 69.5996 104.338 70.2128 103.004 70.2328C102.39 70.2409 101.773 70.2328 101.16 70.2328C91.388 70.2328 81.6161 70.2328 71.8401 70.2328C71.5997 70.2328 71.3632 70.2328 71.1227 70.2328C69.1948 70.2328 68.4292 69.7479 68.4212 68.5173C68.4092 67.2788 69.2228 66.7377 71.0906 66.7377C73.8923 66.7377 76.694 66.7377 79.4957 66.7377C79.8164 66.7377 80.1411 66.7057 80.598 66.6816C79.139 64.5252 78.6099 62.2686 79.0348 59.8036H38.7367V61.5271C39.891 61.5271 40.9772 61.5271 42.0635 61.5271C45.6508 61.5111 49.1539 62.2766 51.8434 64.5853C54.1281 66.5493 56.4849 66.9502 59.2264 66.7538C60.3127 66.6736 61.4109 66.7417 62.5051 66.7417C62.7456 66.7417 62.9861 66.7297 63.2226 66.7618C64.2166 66.886 64.902 67.6115 64.898 68.5173C64.89 69.4713 64.1645 70.1968 63.0983 70.2288C61.8358 70.2649 60.5692 70.2409 59.3066 70.2409C58.6813 70.2409 58.0561 70.2409 57.2905 70.2409C58.7014 72.8382 59.5792 75.3954 59.6032 78.1329C59.6633 84.8987 59.6673 91.6605 59.6152 98.4263C59.5912 101.236 58.1442 103.268 55.6712 104.555C55.106 104.847 54.4808 105.02 53.8836 105.248L53.8755 105.24ZM15.9983 65.1104V101.681H43.815V65.1064H38.6645C38.6645 67.4071 38.6926 69.6236 38.6565 71.8401C38.6245 73.9204 37.2416 75.4515 35.2656 75.4835C31.6823 75.5397 28.095 75.5356 24.5077 75.4835C22.7561 75.4595 21.4094 74.1809 21.205 72.4293C21.0967 71.4834 21.1408 70.5214 21.1368 69.5675C21.1288 68.0805 21.1368 66.5894 21.1368 65.1144H15.9983V65.1104ZM49.0657 29.2493C46.4484 31.7464 43.5505 32.1352 40.1756 31.2414C33.1373 29.3816 26.0548 29.4497 19.0205 31.3736C16.0785 32.1753 13.4852 31.6743 11.2406 29.566C11.1044 29.4377 10.944 29.3335 10.5312 29.0168C10.6434 32.8206 10.451 36.3919 10.912 39.875C12.0743 48.705 19.4534 55.4587 28.3595 56.2002C37.1855 56.9337 45.3983 51.4345 48.2 42.9693C49.687 38.4721 48.9535 33.8547 49.0657 29.2453V29.2493ZM51.3143 12.5954C52.7773 16.0785 52.6891 19.6377 52.637 23.1409C52.8054 23.205 52.8695 23.2331 52.9336 23.2531C57.1582 24.5718 59.6032 27.7102 59.6353 31.7584C59.6633 35.3578 57.2143 39.2056 52.9296 40.2758C52.649 40.3479 52.3204 40.7848 52.2602 41.1015C51.7552 43.7068 50.8494 46.1558 49.5267 48.4525C49.3984 48.6769 49.2902 48.9134 49.1499 49.19H70.0685V12.5954H51.3143ZM73.704 17.814V56.2523C75.7922 56.2523 77.8043 56.2884 79.8164 56.2243C80.2854 56.2083 80.8665 55.9598 81.1832 55.6231C84.7825 51.7752 90.6064 51.8113 94.1576 55.7233C94.3821 55.9718 94.7549 56.2203 95.0635 56.2283C96.6667 56.2764 98.274 56.2644 99.8773 56.2443C100.775 56.2323 101.404 55.7393 101.565 54.8856C101.693 54.2122 101.589 53.4947 101.589 52.7572C100.899 52.7572 100.318 52.7733 99.741 52.7572C96.8752 52.661 94.6586 50.3724 94.6586 47.5186C94.6586 44.6567 96.8671 42.3761 99.737 42.2919C100.342 42.2759 100.947 42.2919 101.569 42.2919V37.0051C101.128 37.0051 100.759 37.0051 100.39 37.0051C94.5865 37.0051 88.7787 37.0051 82.9748 37.0051C79.2352 37.0051 77.151 34.9209 77.139 31.1692C77.1309 27.141 77.139 23.1128 77.139 19.0806C77.139 18.6798 77.139 18.283 77.139 17.822H73.7079L73.704 17.814ZM49.1459 21.6338C49.1459 20.728 49.1619 19.9103 49.1459 19.0966C48.9735 11.425 43.1096 4.81152 35.4861 3.97782C32.4479 3.64514 29.3496 3.73733 26.2793 3.78944C21.0286 3.87361 16.792 6.08211 13.6616 10.2947C11.1765 13.6415 10.3829 17.4573 10.6995 21.6178C23.5217 16.3591 36.2556 16.3631 49.1499 21.6338H49.1459ZM47.4384 101.745C49.202 101.745 50.8373 101.761 52.4767 101.745C54.6772 101.717 56.1321 100.27 56.1361 98.0656C56.1482 91.6765 56.1562 85.2875 56.1321 78.9025C56.1161 75.3392 54.8575 72.2289 52.4807 69.5835C51.1019 68.0524 49.4666 66.874 47.4384 66.0924V101.749V101.745ZM12.3629 66.1525C12.1986 66.1846 12.0984 66.1886 12.0102 66.2207C11.7898 66.3089 11.5653 66.397 11.3569 66.5093C6.69539 69.0224 3.92174 72.9223 3.72934 78.1931C3.48485 84.9108 3.64117 91.6405 3.66922 98.3662C3.67724 100.062 4.9358 101.533 6.60721 101.665C8.49505 101.813 10.4069 101.701 12.3669 101.701V66.1525H12.3629ZM100.639 33.502C100.603 33.2094 100.599 33.037 100.559 32.8727C99.4604 28.4717 98.3622 24.0748 97.2559 19.6738C96.8551 18.0866 96.4062 17.7499 94.7388 17.7499C90.434 17.7499 86.1293 17.7499 81.8285 17.7499H80.7784C80.7142 18.0064 80.6661 18.1026 80.6661 18.1988C80.6581 22.6719 80.6421 27.145 80.6661 31.6222C80.6742 32.8807 81.3355 33.486 82.6021 33.494C85.4719 33.51 88.3418 33.498 91.2116 33.498C94.318 33.498 97.4203 33.498 100.643 33.498L100.639 33.502ZM11.7737 24.9967C14.2748 28.2272 15.5374 28.624 19.1688 27.7182C25.9346 26.0268 32.7445 26.0789 39.5624 27.4336C40.0313 27.5258 40.5043 27.618 40.9532 27.7743C44.1998 28.8846 45.6628 27.9226 48.0036 24.9846C35.8869 19.8943 23.8904 19.8983 11.7737 25.0007V24.9967ZM24.7121 71.9443H35.1053V59.1342C31.6102 59.9479 28.1712 59.9158 24.7121 59.1543V71.9403V71.9443ZM70.0806 52.8614C69.9282 52.8013 69.8962 52.7813 69.8641 52.7813C62.1765 52.7733 54.4888 52.7652 46.8011 52.7652C46.5767 52.7652 46.2921 52.7933 46.1318 52.9296C44.8612 53.9877 43.6146 55.074 42.32 56.1882H70.0765V52.8655L70.0806 52.8614ZM87.5922 66.7297C90.5503 66.7337 92.859 64.437 92.855 61.491C92.855 58.6092 90.5463 56.2764 87.6724 56.2564C84.7825 56.2363 82.3937 58.6092 82.3856 61.5151C82.3776 64.3689 84.7264 66.7217 87.5922 66.7297ZM52.6891 36.5522C54.7373 35.951 56.1562 33.9068 56.1321 31.6903C56.1081 29.5259 54.6451 27.5058 52.6891 26.9847V36.5522ZM7.05612 36.5562V26.9446C4.94782 27.7222 3.60509 29.6902 3.64918 31.8626C3.68926 33.9629 5.06807 35.8949 7.05612 36.5562ZM101.585 45.791C100.434 45.8471 99.1598 45.3501 98.4744 46.5766C98.2019 47.0656 98.2059 47.9715 98.4864 48.4525C99.1799 49.6469 100.438 49.21 101.581 49.23V45.791H101.585Z" fill="#0052CC"/>
<path fill-rule="evenodd" clip-rule="evenodd" d="M103.776 70.2519L69.9572 70.2519C68.9907 70.2519 68.2072 69.4684 68.2072 68.5019C68.2072 67.5354 68.9907 66.7519 69.9572 66.7519L103.776 66.7519C104.743 66.7519 105.526 67.5354 105.526 68.5019C105.526 69.4684 104.743 70.2519 103.776 70.2519Z" fill="#F27B42"/>
</svg>
