<svg width="149" height="143" viewBox="0 0 149 143" fill="none" xmlns="http://www.w3.org/2000/svg">
<path d="M45.4701 21.5342C28.9206 31.4593 20.6459 45.8274 20.6459 64.6026C20.6459 71.2313 21.3559 76.0326 22.7487 78.9349C24.1415 81.873 25.7528 83.6287 27.5825 84.1661C29.4122 84.7394 32.1431 85.2052 35.7753 85.5635C42.7938 85.9577 47.7641 88.6091 50.7135 93.5537C53.6629 98.5342 55.1376 104.518 55.1376 111.505C55.1376 121.072 52.8983 128.704 48.4195 134.436C43.9135 140.134 37.605 143 29.4668 143C9.83138 143 0 129.384 0 102.153V82.2671C0 60.1596 4.20565 42.6026 12.6169 29.5244C21.0828 16.4821 32.0066 7.38111 45.4701 2.2215V21.5342ZM139.305 19.886C122.756 29.0945 114.481 43.4625 114.481 62.9544C114.481 71.8046 115.655 77.3941 118.058 79.7948C120.434 82.1954 123.875 83.3779 128.354 83.3779C135.919 83.3779 141.271 85.9577 144.357 91.1173C147.443 96.2769 149 102.547 149 109.893C149 119.459 146.733 127.091 142.255 132.824C137.749 138.521 131.44 141.388 123.329 141.388C103.694 141.388 93.8624 127.772 93.8624 100.505V80.6189C93.8624 58.5472 98.0953 40.9544 106.507 27.9121C114.918 14.8339 125.869 5.55375 139.332 0V19.886H139.305Z" fill="#0052CC"/>
</svg>
