<svg width="109" height="109" viewBox="0 0 109 109" fill="none" xmlns="http://www.w3.org/2000/svg">
<path d="M54.8927 24.0585C38.3686 24.0585 24.9252 37.5019 24.9252 54.026C24.9252 70.5502 38.3686 83.9936 54.8927 83.9936C71.4169 83.9936 84.8603 70.5502 84.8603 54.026C84.8603 37.5019 71.4169 24.0585 54.8927 24.0585ZM54.8927 79.7728C40.6959 79.7728 29.146 68.2228 29.146 54.026C29.146 39.8292 40.6959 28.2792 54.8927 28.2792C69.0895 28.2792 80.6395 39.8292 80.6395 54.026C80.6395 68.2228 69.0895 79.7728 54.8927 79.7728Z" fill="#F27B42"/>
<path d="M107.798 0.246494C107.109 -0.119448 106.274 -0.0753407 105.627 0.36151C95.2664 7.36189 89.0811 19.0062 89.0811 31.51V58.8928C89.0811 61.8298 90.2249 64.591 92.3015 66.6679L96.2564 70.6227V101.721C96.2564 105.212 99.0965 108.052 102.588 108.052C106.079 108.052 108.919 105.212 108.919 101.721V2.11039C108.919 1.32976 108.488 0.612858 107.798 0.246494ZM104.698 101.721C104.698 102.884 103.751 103.831 102.588 103.831C101.424 103.831 100.477 102.884 100.477 101.721V69.7484C100.477 69.1887 100.255 68.6521 99.859 68.2562L95.286 63.6832C94.0065 62.4036 93.3018 60.7024 93.3018 58.8928V31.51C93.3018 21.8065 97.4975 12.6866 104.698 6.39385V101.721Z" fill="#0052CC"/>
<path d="M50.051 37.2891C49.5935 36.2172 48.353 35.7194 47.2814 36.1767C40.1202 39.2338 35.4929 46.2401 35.4929 54.026C35.4929 55.1913 36.4377 56.1364 37.6033 56.1364C38.7689 56.1364 39.7137 55.1913 39.7137 54.026C39.7137 47.9335 43.3347 42.4509 48.9386 40.0588C50.0105 39.6013 50.5086 38.3612 50.051 37.2891Z" fill="#F27B42"/>
<path d="M84.1476 26.2699C80.4189 22.3412 76.0238 19.2499 71.0845 17.0821C65.9697 14.8375 60.5219 13.6994 54.8927 13.6994C48.4602 13.6994 42.3114 15.1695 36.6171 18.0692C35.5786 18.598 35.1652 19.8687 35.694 20.9074C36.2231 21.9457 37.4938 22.359 38.5325 21.8303C43.6278 19.2358 49.1322 17.9202 54.8927 17.9202C64.8951 17.9202 74.1975 21.9172 81.086 29.1755C81.5009 29.6128 82.0585 29.8331 82.6171 29.8331C83.1388 29.8331 83.6613 29.6409 84.0695 29.2534C84.9149 28.451 84.9497 27.1153 84.1476 26.2699Z" fill="#0052CC"/>
<path d="M86.1964 76.054C85.2819 75.3314 83.9549 75.4866 83.2321 76.4008C76.3326 85.1272 66.0033 90.1318 54.8927 90.1318C47.939 90.1318 41.1885 88.1514 35.371 84.4047C34.3913 83.7734 33.085 84.0564 32.454 85.0361C31.823 86.0161 32.1058 87.3221 33.0856 87.9531C39.5861 92.1397 47.1269 94.3524 54.8927 94.3524C67.3018 94.3524 78.8378 88.7634 86.5429 79.0183C87.2657 78.1043 87.1108 76.7771 86.1964 76.054Z" fill="#0052CC"/>
<path d="M27.0355 0C25.87 0 24.9252 0.944822 24.9252 2.11039V24.9026H21.1248C21.125 24.8908 21.1264 24.8794 21.1264 24.8674V2.11039C21.1264 0.944822 20.1816 0 19.0161 0C17.8505 0 16.9057 0.944822 16.9057 2.11039V24.8674C16.9057 24.8792 16.9074 24.8908 16.9074 24.9026H13.1053C13.1055 24.8908 13.107 24.8794 13.107 24.8674V2.11039C13.107 0.944822 12.1621 0 10.9966 0C9.83101 0 8.88618 0.944822 8.88618 2.11039V24.8674C8.88618 24.8792 8.88787 24.8908 8.88787 24.9026H5.08748V2.11039C5.08748 0.944822 4.14266 0 2.97709 0C1.81152 0 0.866699 0.944822 0.866699 2.11039V27.8572C0.866699 33.0339 4.0078 37.7061 8.67514 39.7258V101.721C8.67514 105.212 11.5153 108.052 15.0063 108.052C18.4973 108.052 21.3375 105.212 21.3375 101.721V39.7258C26.0048 37.7061 29.1459 33.0339 29.1459 27.8572V2.11039C29.1459 0.944822 28.2011 0 27.0355 0ZM18.6413 36.2185C17.7384 36.4794 17.1167 37.306 17.1167 38.246V101.721C17.1167 102.884 16.17 103.831 15.0063 103.831C13.8426 103.831 12.8959 102.884 12.8959 101.721V38.246C12.8959 37.306 12.2744 36.4794 11.3714 36.2185C8.08276 35.2682 5.67733 32.4454 5.18287 29.1234H24.8296C24.3353 32.4454 21.9299 35.2682 18.6413 36.2185Z" fill="#0052CC"/>
</svg>
