<svg width="102" height="95" viewBox="0 0 102 95" fill="none" xmlns="http://www.w3.org/2000/svg">
<path d="M97.8114 49.2419C97.7788 48.8184 97.5876 48.4227 97.2759 48.1341C96.9642 47.8455 96.555 47.6852 96.1302 47.6853H71.9375L70.8373 25.6823C70.8157 25.2502 70.6289 24.843 70.3154 24.5449C70.002 24.2468 69.586 24.0805 69.1534 24.0805H57.351V15.6503C57.3519 13.2224 56.77 10.8298 55.6542 8.67355C54.5384 6.51728 52.9213 4.66033 50.9389 3.25875C48.9565 1.85717 46.6666 0.951902 44.2616 0.619026C41.8567 0.28615 39.407 0.535389 37.1184 1.3458C34.8298 0.535389 32.3801 0.28615 29.9752 0.619026C27.5703 0.951902 25.2804 1.85717 23.2979 3.25875C21.3155 4.66033 19.6984 6.51728 18.5827 8.67355C17.4669 10.8298 16.8849 13.2224 16.8858 15.6503V24.0805H5.08343C4.65085 24.0805 4.23482 24.2468 3.92139 24.5449C3.60796 24.843 3.42111 25.2502 3.39948 25.6823L0.0273775 93.1244C0.0159518 93.3526 0.0510388 93.5808 0.130507 93.795C0.209976 94.0093 0.332168 94.2051 0.48966 94.3707C0.647153 94.5363 0.836659 94.6681 1.04667 94.7582C1.25668 94.8483 1.48281 94.8947 1.71132 94.8947H99.5023C99.7347 94.8947 99.9645 94.8467 100.177 94.7537C100.39 94.6607 100.582 94.5247 100.74 94.3543C100.897 94.1838 101.018 93.9825 101.095 93.7631C101.171 93.5437 101.201 93.3109 101.184 93.0793L97.8114 49.2419ZM92.7581 86.1319L96.352 91.5226H89.1652L92.7581 86.1319ZM97.3265 86.9051L94.394 82.5067L91.2491 51.0574H94.569L97.3265 86.9051ZM87.8602 51.0574L91.0215 82.6595L87.3206 88.2095L84.4625 51.0574H87.8602ZM68.5612 47.6853H65.3878L64.1975 27.4526H67.5485L68.5612 47.6853ZM60.8195 27.4526L62.0098 47.6853H58.448L57.4364 27.4526H60.8195ZM42.1766 3.8479C45.3057 3.85147 48.3056 5.09608 50.5182 7.30868C52.7308 9.52127 53.9754 12.5212 53.9789 15.6503V24.0805H47.2347V15.6503C47.2347 13.3897 46.7288 11.1577 45.7542 9.11799C44.7795 7.07829 43.3607 5.28257 41.6018 3.86244C41.7924 3.85338 41.9837 3.8479 42.1766 3.8479ZM37.1184 4.98894C39.1349 5.94737 40.8386 7.45747 42.0322 9.34433C43.2258 11.2312 43.8605 13.4176 43.8626 15.6503V24.0805H30.3742V15.6503C30.3764 13.4176 31.011 11.2312 32.2046 9.34433C33.3982 7.45747 35.1019 5.94737 37.1184 4.98894ZM20.2579 15.6503C20.2615 12.5212 21.5061 9.52127 23.7187 7.30868C25.9313 5.09608 28.9312 3.85147 32.0603 3.8479C32.2531 3.8479 32.4445 3.85338 32.635 3.86244C30.8761 5.28254 29.4573 7.07826 28.4826 9.11796C27.5079 11.1577 27.0021 13.3896 27.0021 15.6503V24.0805H20.2579V15.6503ZM40.6153 91.5226H3.48378L6.68728 27.4526H16.8858V38.3527L12.5783 41.2243C12.3474 41.3783 12.1581 41.5869 12.0271 41.8316C11.8962 42.0763 11.8276 42.3495 11.8276 42.6271V56.1155C11.8276 56.5627 12.0053 56.9915 12.3215 57.3077C12.6377 57.6239 13.0665 57.8016 13.5137 57.8016H23.63C24.0772 57.8016 24.506 57.6239 24.8222 57.3077C25.1384 56.9915 25.3161 56.5627 25.3161 56.1155V42.6271C25.316 42.3495 25.2475 42.0763 25.1166 41.8316C24.9856 41.5869 24.7963 41.3783 24.5653 41.2243L20.2579 38.3527V27.4526H43.8626V32.5108C43.8626 32.958 44.0403 33.3868 44.3565 33.703C44.6727 34.0192 45.1015 34.1968 45.5487 34.1968C45.9958 34.1968 46.4247 34.0192 46.7409 33.703C47.0571 33.3868 47.2347 32.958 47.2347 32.5108V27.4526H54.0611L55.0728 47.6853H45.5487C45.1239 47.6852 44.7147 47.8455 44.403 48.1341C44.0913 48.4227 43.9001 48.8184 43.8675 49.2419L40.6153 91.5226ZM18.5718 41.2814L21.9439 43.5293V54.4295H15.1997V43.5293L18.5718 41.2814ZM47.11 51.0574H81.0805L84.1932 91.5226H43.9973L47.11 51.0574Z" fill="#0052CC"/>
<path d="M72.5255 57.8016C72.0783 57.8016 71.6494 57.9792 71.3332 58.2954C71.017 58.6116 70.8394 59.0405 70.8394 59.4876V72.976C70.8379 74.3171 70.3045 75.6028 69.3562 76.551C68.408 77.4993 67.1223 78.0327 65.7812 78.0342H62.4091C61.0681 78.0327 59.7824 77.4993 58.8341 76.551C57.8859 75.6028 57.3525 74.3171 57.351 72.976V59.4876C57.351 59.0405 57.1733 58.6116 56.8572 58.2954C56.541 57.9792 56.1121 57.8016 55.6649 57.8016C55.2178 57.8016 54.7889 57.9792 54.4727 58.2954C54.1565 58.6116 53.9789 59.0405 53.9789 59.4876V72.976C53.9814 75.2111 54.8704 77.3539 56.4508 78.9344C58.0313 80.5148 60.1741 81.4038 62.4091 81.4063H65.7812C68.0163 81.4038 70.1591 80.5148 71.7396 78.9344C73.32 77.3539 74.209 75.2111 74.2115 72.976V59.4876C74.2115 59.0405 74.0339 58.6116 73.7177 58.2954C73.4015 57.9792 72.9726 57.8016 72.5255 57.8016Z" fill="#F27B42"/>
</svg>
