<svg width="109" height="116" viewBox="0 0 109 116" fill="none" xmlns="http://www.w3.org/2000/svg">
<path d="M29.4082 85.2601L28.9233 82.9584C28.7315 82.0479 27.8385 81.4651 26.9274 81.6572C26.017 81.849 25.4342 82.7423 25.6262 83.653L26.1111 85.9545C26.2782 86.748 26.9782 87.2926 27.7579 87.2926C27.8729 87.2926 27.9897 87.2805 28.1069 87.256C29.0174 87.0642 29.5999 86.1708 29.4082 85.2601Z" fill="#F27B42"/>
<path d="M33.2385 103.442L31.0244 92.9323C30.8326 92.0216 29.9392 91.4402 29.0285 91.6308C28.118 91.8226 27.5352 92.7162 27.7273 93.6267L29.9414 104.137C30.1085 104.93 30.8085 105.475 31.5883 105.475C31.7033 105.475 31.82 105.463 31.9373 105.438C32.8477 105.247 33.4307 104.353 33.2385 103.442Z" fill="#F27B42"/>
<path d="M48.3129 103.324L46.8744 82.8402C46.8093 81.912 46.0035 81.2111 45.0758 81.2776C44.1476 81.3427 43.448 82.1481 43.5131 83.0763L44.9516 103.561C45.0138 104.449 45.7535 105.127 46.6305 105.127C46.6701 105.127 46.7103 105.126 46.7502 105.123C47.6784 105.058 48.3782 104.253 48.3129 103.324Z" fill="#F27B42"/>
<path d="M63.7964 97.7895C62.8698 97.7222 62.0629 98.424 61.9977 99.3522L61.7105 103.443C61.6454 104.371 62.3449 105.176 63.2731 105.241C63.3133 105.244 63.3533 105.245 63.3928 105.245C64.2696 105.245 65.0094 104.567 65.0718 103.679L65.3591 99.5882C65.4244 98.66 64.7246 97.8547 63.7964 97.7895Z" fill="#F27B42"/>
<path d="M64.9477 81.3959C64.022 81.3304 63.2142 82.0304 63.149 82.9586L62.5469 91.5325C62.4818 92.4604 63.1816 93.2658 64.1096 93.3309C64.1498 93.3338 64.1897 93.3352 64.2293 93.3352C65.106 93.3352 65.8458 92.6565 65.9082 91.7685L66.5104 83.1946C66.5755 82.2664 65.8759 81.4611 64.9477 81.3959Z" fill="#F27B42"/>
<path d="M81.4512 81.3097C80.5405 81.117 79.6471 81.7007 79.4554 82.6109L75.1402 103.095C74.9482 104.006 75.5308 104.899 76.4415 105.091C76.5587 105.116 76.6753 105.128 76.7905 105.128C77.5702 105.128 78.2702 104.583 78.4373 103.79L82.7524 83.3056C82.9442 82.3951 82.3617 81.5015 81.4512 81.3097Z" fill="#F27B42"/>
<path d="M104.746 63.4146H96.063V46.5619C96.063 45.8428 95.8871 45.1255 95.5545 44.4879L91.8862 37.4549C93.3547 37.0861 94.4466 35.7589 94.4466 34.1776V31.6874C94.4466 29.8223 92.9294 28.3047 91.0642 28.3047H67.7337C65.8686 28.3047 64.3511 29.8223 64.3511 31.6874V34.1526C63.7014 32.9163 62.8812 31.7622 61.8984 30.7257C59.7822 28.4934 58.6166 25.57 58.6166 22.4939V20.8381C59.0813 20.4233 59.3757 19.8218 59.3757 19.1517V2.81334C59.3759 1.56511 58.3606 0.549774 57.1126 0.549774H46.9821C45.7341 0.549774 44.7188 1.56511 44.7188 2.81311V19.1515C44.7188 19.8218 45.0134 20.423 45.4779 20.8378V22.4937C45.4779 25.5698 44.3123 28.4932 42.1961 30.7255C39.4836 33.5865 37.9899 37.3332 37.9899 41.2755V55.0462L36.0021 43.4277C35.5233 40.6291 33.8479 38.1938 31.4051 36.7463C28.9626 35.2989 26.0221 34.9989 23.3372 35.9228L22.2925 36.2824C21.5159 31.2131 22.4364 25.8164 22.4481 25.7497C22.6089 24.8338 21.9974 23.9604 21.0813 23.799C20.1648 23.6368 19.2912 24.2492 19.1295 25.1658C19.0823 25.4335 18.2859 30.0722 18.754 35.0945L13.4008 19.5395C13.0981 18.6596 12.1391 18.1916 11.2594 18.4946C10.3795 18.7973 9.9117 19.7563 10.2144 20.6359L14.9711 34.4574C14.8685 34.2721 14.7643 34.0862 14.6573 33.8989C11.5855 28.5107 8.449 25.1734 5.33472 23.9795C4.46626 23.6462 3.49158 24.0808 3.15852 24.9495C2.82547 25.8182 3.25981 26.7926 4.12849 27.1257C7.85408 28.554 11.5195 34.783 13.6571 39.2545L12.4654 39.6646C9.78077 40.5885 7.64769 42.6349 6.61304 45.2789C5.57862 47.9231 5.75671 50.8739 7.10151 53.3742L12.5018 63.4146H3.59646C1.6134 63.4146 0 65.028 0 67.011V71.7612C0 73.7442 1.6134 75.3576 3.59646 75.3576H7.43322L14.9233 109.235C15.7437 112.945 18.9702 115.536 22.7697 115.536H85.5727C89.3724 115.536 92.599 112.945 93.4192 109.235L100.909 75.3576H104.746C106.729 75.3576 108.343 73.7442 108.343 71.7612V67.011C108.343 65.028 106.729 63.4146 104.746 63.4146ZM92.5669 46.0465C92.6498 46.2051 92.6933 46.3832 92.6933 46.5622V63.4148H90.0244V51.8652C90.0244 50.5541 88.9576 49.4871 87.6463 49.4871H71.1516C69.8403 49.4871 68.7735 50.5539 68.7735 51.8652V63.4148H66.1046V47.182V46.5622C66.1046 46.3834 66.1482 46.2053 66.231 46.0465L70.6571 37.5602H88.1406L92.5669 46.0465ZM86.6548 52.8565V63.4146H72.1432V52.8565H86.6548ZM67.7337 31.6746L91.0772 31.6876L91.0687 34.1904C91.0687 34.1904 91.0676 34.1906 91.0642 34.1906L67.7207 34.1776L67.7337 31.6746ZM66.9118 37.4549L65.9701 39.2605C65.8506 38.3514 65.6498 37.4607 65.3731 36.5956C65.7947 37.0071 66.3229 37.3071 66.9118 37.4549ZM48.0882 3.9194H56.0061V18.0452H48.0882V3.9194ZM44.6411 33.0441C47.3534 30.1829 48.8473 26.4362 48.8473 22.4939V21.4148H55.247V22.4939C55.247 26.4362 56.7409 30.1832 59.4532 33.0441C61.5694 35.2762 62.735 38.1996 62.735 41.2757V45.4972H49.9188C48.0466 45.4972 46.5238 47.0203 46.5238 48.8922V63.4146H41.3593V41.2757H41.359C41.359 38.1996 42.5246 35.2762 44.6411 33.0441ZM62.7352 48.867V63.4148H49.8936V48.8924C49.8936 48.8783 49.9051 48.867 49.919 48.867H62.7352ZM11.5698 54.5683L10.0691 51.7781C9.19349 50.1498 9.07738 48.2283 9.75113 46.5067C10.4247 44.785 11.8137 43.4524 13.5618 42.8507L24.4336 39.1092C26.1818 38.5075 28.0968 38.7029 29.6871 39.6452C31.2775 40.5878 32.3688 42.1736 32.6805 43.9959L36.0028 63.4143H21.1505L24.1821 62.3709C25.062 62.0682 25.5298 61.1092 25.2269 60.2295C24.9241 59.3496 23.9654 58.8818 23.0855 59.1846L15.464 61.8077L13.1875 57.575L23.4893 54.0295C24.3692 53.7268 24.837 52.7678 24.534 51.8881C24.2313 51.0082 23.2725 50.5404 22.3926 50.8431L11.5698 54.5683ZM90.1291 108.507C89.6527 110.661 87.7793 112.166 85.5727 112.166H22.7697C20.5634 112.166 18.6897 110.661 18.2136 108.507L10.8841 75.3576H97.4585L90.1291 108.507ZM104.973 71.7612C104.973 71.8863 104.871 71.988 104.746 71.988H3.59646C3.47137 71.988 3.36963 71.8863 3.36963 71.7612V67.011C3.36963 66.8859 3.47137 66.7842 3.59646 66.7842H104.746C104.871 66.7842 104.973 66.8859 104.973 67.011V71.7612H104.973Z" fill="#0052CC"/>
</svg>
