<svg width="79" height="78" viewBox="0 0 79 78" fill="none" xmlns="http://www.w3.org/2000/svg">
<g filter="url(#filter0_dd_1_1075)">
<g clip-path="url(#clip0_1_1075)">
<rect x="11.9791" y="7" width="56" height="56" rx="16" fill="#F27B42"/>
<path d="M48.9791 34.5C48.9826 35.8199 48.6742 37.1219 48.0791 38.3C47.3736 39.7117 46.2889 40.8992 44.9466 41.7293C43.6043 42.5594 42.0574 42.9994 40.4791 43C39.1593 43.0034 37.8572 42.6951 36.6791 42.1L30.9791 44L32.8791 38.3C32.2841 37.1219 31.9757 35.8199 31.9791 34.5C31.9797 32.9218 32.4197 31.3748 33.2498 30.0325C34.08 28.6902 35.2674 27.6056 36.6791 26.9C37.8572 26.3049 39.1593 25.9966 40.4791 26H40.9791C43.0635 26.115 45.0322 26.9948 46.5083 28.4709C47.9844 29.947 48.8641 31.9157 48.9791 34V34.5Z" stroke="white" stroke-width="4" stroke-linecap="round" stroke-linejoin="round"/>
</g>
</g>
<defs>
<filter id="filter0_dd_1_1075" x="0.979126" y="0" width="78" height="78" filterUnits="userSpaceOnUse" color-interpolation-filters="sRGB">
<feFlood flood-opacity="0" result="BackgroundImageFix"/>
<feColorMatrix in="SourceAlpha" type="matrix" values="0 0 0 0 0 0 0 0 0 0 0 0 0 0 0 0 0 0 127 0" result="hardAlpha"/>
<feOffset dy="1"/>
<feGaussianBlur stdDeviation="1.5"/>
<feColorMatrix type="matrix" values="0 0 0 0 0 0 0 0 0 0 0 0 0 0 0 0 0 0 0.3 0"/>
<feBlend mode="normal" in2="BackgroundImageFix" result="effect1_dropShadow_1_1075"/>
<feColorMatrix in="SourceAlpha" type="matrix" values="0 0 0 0 0 0 0 0 0 0 0 0 0 0 0 0 0 0 127 0" result="hardAlpha"/>
<feMorphology radius="3" operator="dilate" in="SourceAlpha" result="effect2_dropShadow_1_1075"/>
<feOffset dy="4"/>
<feGaussianBlur stdDeviation="4"/>
<feColorMatrix type="matrix" values="0 0 0 0 0 0 0 0 0 0 0 0 0 0 0 0 0 0 0.15 0"/>
<feBlend mode="normal" in2="effect1_dropShadow_1_1075" result="effect2_dropShadow_1_1075"/>
<feBlend mode="normal" in="SourceGraphic" in2="effect2_dropShadow_1_1075" result="shape"/>
</filter>
<clipPath id="clip0_1_1075">
<rect x="11.9791" y="7" width="56" height="56" rx="16" fill="white"/>
</clipPath>
</defs>
</svg>
