<svg width="41" height="40" viewBox="0 0 41 40" fill="none" xmlns="http://www.w3.org/2000/svg">
<g clip-path="url(#clip0_4_87)">
<path d="M0.594971 40L3.40664 29.7283C1.67164 26.7217 0.759971 23.3133 0.761637 19.8183C0.766637 8.89167 9.6583 0 20.5833 0C25.885 0.00166667 30.8616 2.06667 34.605 5.81333C38.3466 9.56 40.4066 14.54 40.405 19.8367C40.4 30.765 31.5083 39.6567 20.5833 39.6567C17.2666 39.655 13.9983 38.8233 11.1033 37.2433L0.594971 40ZM11.59 33.655C14.3833 35.3133 17.05 36.3067 20.5766 36.3083C29.6566 36.3083 37.0533 28.9183 37.0583 19.8333C37.0616 10.73 29.7 3.35 20.59 3.34667C11.5033 3.34667 4.11164 10.7367 4.1083 19.82C4.10664 23.5283 5.1933 26.305 7.0183 29.21L5.3533 35.29L11.59 33.655ZM30.5683 24.5483C30.445 24.3417 30.115 24.2183 29.6183 23.97C29.1233 23.7217 26.6883 22.5233 26.2333 22.3583C25.78 22.1933 25.45 22.11 25.1183 22.6067C24.7883 23.1017 23.8383 24.2183 23.55 24.5483C23.2616 24.8783 22.9716 24.92 22.4766 24.6717C21.9816 24.4233 20.385 23.9017 18.4933 22.2133C17.0216 20.9 16.0266 19.2783 15.7383 18.7817C15.45 18.2867 15.7083 18.0183 15.955 17.7717C16.1783 17.55 16.45 17.1933 16.6983 16.9033C16.95 16.6167 17.0316 16.41 17.1983 16.0783C17.3633 15.7483 17.2816 15.4583 17.1566 15.21C17.0316 14.9633 16.0416 12.525 15.63 11.5333C15.2266 10.5683 14.8183 10.6983 14.515 10.6833L13.565 10.6667C13.235 10.6667 12.6983 10.79 12.245 11.2867C11.7916 11.7833 10.5116 12.98 10.5116 15.4183C10.5116 17.8567 12.2866 20.2117 12.5333 20.5417C12.7816 20.8717 16.025 25.875 20.9933 28.02C22.175 28.53 23.0983 28.835 23.8166 29.0633C25.0033 29.44 26.0833 29.3867 26.9366 29.26C27.8883 29.1183 29.8666 28.0617 30.28 26.905C30.6933 25.7467 30.6933 24.755 30.5683 24.5483Z" fill="white"/>
</g>
<defs>
<clipPath id="clip0_4_87">
<rect width="40" height="40" fill="white" transform="translate(0.5)"/>
</clipPath>
</defs>
</svg>
